<svg xmlns="http://www.w3.org/2000/svg" xmlns:xlink="http://www.w3.org/1999/xlink" width="2912" zoomAndPan="magnify" viewBox="0 0 2184 1619.99993" height="2160" preserveAspectRatio="xMidYMid meet" version="1.0"><defs><clipPath id="6d62560c96"><path d="M 293.539062 104.359375 L 1890.289062 104.359375 L 1890.289062 1515.859375 L 293.539062 1515.859375 Z M 293.539062 104.359375 " clip-rule="nonzero"/></clipPath><clipPath id="da2b35a78d"><path d="M 1097 312.710938 L 1739 312.710938 L 1739 1024.460938 L 1097 1024.460938 Z M 1097 312.710938 " clip-rule="nonzero"/></clipPath><clipPath id="d41e7a949b"><path d="M 485.8125 279.230469 L 983.96875 279.230469 L 983.96875 482.625 L 485.8125 482.625 Z M 485.8125 279.230469 " clip-rule="nonzero"/></clipPath><clipPath id="2ec31d033b"><path d="M 489.5625 279.230469 L 979.476562 279.230469 C 980.472656 279.230469 981.425781 279.628906 982.128906 280.332031 C 982.832031 281.035156 983.226562 281.988281 983.226562 282.980469 L 983.226562 478.875 C 983.226562 479.871094 982.832031 480.824219 982.128906 481.527344 C 981.425781 482.230469 980.472656 482.625 979.476562 482.625 L 489.5625 482.625 C 488.570312 482.625 487.617188 482.230469 486.914062 481.527344 C 486.210938 480.824219 485.8125 479.871094 485.8125 478.875 L 485.8125 282.980469 C 485.8125 281.988281 486.210938 281.035156 486.914062 280.332031 C 487.617188 279.628906 488.570312 279.230469 489.5625 279.230469 Z M 489.5625 279.230469 " clip-rule="nonzero"/></clipPath><clipPath id="f10e6d337f"><path d="M 0.8125 0.230469 L 498.28125 0.230469 L 498.28125 203.625 L 0.8125 203.625 Z M 0.8125 0.230469 " clip-rule="nonzero"/></clipPath><clipPath id="9f73c7aebb"><path d="M 4.5625 0.230469 L 494.476562 0.230469 C 495.472656 0.230469 496.425781 0.628906 497.128906 1.332031 C 497.832031 2.035156 498.226562 2.988281 498.226562 3.980469 L 498.226562 199.875 C 498.226562 200.871094 497.832031 201.824219 497.128906 202.527344 C 496.425781 203.230469 495.472656 203.625 494.476562 203.625 L 4.5625 203.625 C 3.570312 203.625 2.617188 203.230469 1.914062 202.527344 C 1.210938 201.824219 0.8125 200.871094 0.8125 199.875 L 0.8125 3.980469 C 0.8125 2.988281 1.210938 2.035156 1.914062 1.332031 C 2.617188 0.628906 3.570312 0.230469 4.5625 0.230469 Z M 4.5625 0.230469 " clip-rule="nonzero"/></clipPath><clipPath id="044893430d"><rect x="0" width="499" y="0" height="204"/></clipPath><clipPath id="b8a15184b6"><path d="M 485.816406 279.230469 L 983.0625 279.230469 L 983.0625 482.480469 L 485.816406 482.480469 Z M 485.816406 279.230469 " clip-rule="nonzero"/></clipPath><clipPath id="ace562ac6d"><path d="M 489.566406 279.230469 L 979.476562 279.230469 C 980.46875 279.230469 981.421875 279.628906 982.128906 280.332031 C 982.832031 281.035156 983.226562 281.988281 983.226562 282.980469 L 983.226562 478.871094 C 983.226562 479.867188 982.832031 480.820312 982.128906 481.523438 C 981.421875 482.226562 980.46875 482.621094 979.476562 482.621094 L 489.566406 482.621094 C 488.574219 482.621094 487.617188 482.226562 486.914062 481.523438 C 486.210938 480.820312 485.816406 479.867188 485.816406 478.871094 L 485.816406 282.980469 C 485.816406 281.988281 486.210938 281.035156 486.914062 280.332031 C 487.617188 279.628906 488.574219 279.230469 489.566406 279.230469 Z M 489.566406 279.230469 " clip-rule="nonzero"/></clipPath><clipPath id="b0549e9cf2"><path d="M 485.8125 566.824219 L 983.96875 566.824219 L 983.96875 770.214844 L 485.8125 770.214844 Z M 485.8125 566.824219 " clip-rule="nonzero"/></clipPath><clipPath id="0179f3a1c2"><path d="M 489.5625 566.824219 L 979.476562 566.824219 C 980.472656 566.824219 981.425781 567.21875 982.128906 567.921875 C 982.832031 568.625 983.226562 569.578125 983.226562 570.574219 L 983.226562 766.464844 C 983.226562 767.460938 982.832031 768.414062 982.128906 769.117188 C 981.425781 769.820312 980.472656 770.214844 979.476562 770.214844 L 489.5625 770.214844 C 488.570312 770.214844 487.617188 769.820312 486.914062 769.117188 C 486.210938 768.414062 485.8125 767.460938 485.8125 766.464844 L 485.8125 570.574219 C 485.8125 569.578125 486.210938 568.625 486.914062 567.921875 C 487.617188 567.21875 488.570312 566.824219 489.5625 566.824219 Z M 489.5625 566.824219 " clip-rule="nonzero"/></clipPath><clipPath id="dfa11844fc"><path d="M 0.8125 0.824219 L 498.28125 0.824219 L 498.28125 204.214844 L 0.8125 204.214844 Z M 0.8125 0.824219 " clip-rule="nonzero"/></clipPath><clipPath id="1be0edc01f"><path d="M 4.5625 0.824219 L 494.476562 0.824219 C 495.472656 0.824219 496.425781 1.21875 497.128906 1.921875 C 497.832031 2.625 498.226562 3.578125 498.226562 4.574219 L 498.226562 200.464844 C 498.226562 201.460938 497.832031 202.414062 497.128906 203.117188 C 496.425781 203.820312 495.472656 204.214844 494.476562 204.214844 L 4.5625 204.214844 C 3.570312 204.214844 2.617188 203.820312 1.914062 203.117188 C 1.210938 202.414062 0.8125 201.460938 0.8125 200.464844 L 0.8125 4.574219 C 0.8125 3.578125 1.210938 2.625 1.914062 1.921875 C 2.617188 1.21875 3.570312 0.824219 4.5625 0.824219 Z M 4.5625 0.824219 " clip-rule="nonzero"/></clipPath><clipPath id="753175c956"><rect x="0" width="499" y="0" height="205"/></clipPath><clipPath id="acd573b1b2"><path d="M 485.816406 566.824219 L 983.0625 566.824219 L 983.0625 770.074219 L 485.816406 770.074219 Z M 485.816406 566.824219 " clip-rule="nonzero"/></clipPath><clipPath id="367d71fbcd"><path d="M 489.566406 566.824219 L 979.476562 566.824219 C 980.46875 566.824219 981.421875 567.21875 982.128906 567.921875 C 982.832031 568.625 983.226562 569.578125 983.226562 570.574219 L 983.226562 766.464844 C 983.226562 767.457031 982.832031 768.414062 982.128906 769.117188 C 981.421875 769.820312 980.46875 770.214844 979.476562 770.214844 L 489.566406 770.214844 C 488.574219 770.214844 487.617188 769.820312 486.914062 769.117188 C 486.210938 768.414062 485.816406 767.457031 485.816406 766.464844 L 485.816406 570.574219 C 485.816406 569.578125 486.210938 568.625 486.914062 567.921875 C 487.617188 567.21875 488.574219 566.824219 489.566406 566.824219 Z M 489.566406 566.824219 " clip-rule="nonzero"/></clipPath><clipPath id="f58ed37db5"><path d="M 485.8125 854.414062 L 983.96875 854.414062 L 983.96875 1057.808594 L 485.8125 1057.808594 Z M 485.8125 854.414062 " clip-rule="nonzero"/></clipPath><clipPath id="7b55999762"><path d="M 489.5625 854.414062 L 979.476562 854.414062 C 980.472656 854.414062 981.425781 854.808594 982.128906 855.511719 C 982.832031 856.214844 983.226562 857.167969 983.226562 858.164062 L 983.226562 1054.058594 C 983.226562 1055.050781 982.832031 1056.003906 982.128906 1056.707031 C 981.425781 1057.414062 980.472656 1057.808594 979.476562 1057.808594 L 489.5625 1057.808594 C 488.570312 1057.808594 487.617188 1057.414062 486.914062 1056.707031 C 486.210938 1056.003906 485.8125 1055.050781 485.8125 1054.058594 L 485.8125 858.164062 C 485.8125 857.167969 486.210938 856.214844 486.914062 855.511719 C 487.617188 854.808594 488.570312 854.414062 489.5625 854.414062 Z M 489.5625 854.414062 " clip-rule="nonzero"/></clipPath><clipPath id="3b9a2657a1"><path d="M 0.8125 0.414062 L 498.28125 0.414062 L 498.28125 203.808594 L 0.8125 203.808594 Z M 0.8125 0.414062 " clip-rule="nonzero"/></clipPath><clipPath id="79024a48da"><path d="M 4.5625 0.414062 L 494.476562 0.414062 C 495.472656 0.414062 496.425781 0.808594 497.128906 1.511719 C 497.832031 2.214844 498.226562 3.167969 498.226562 4.164062 L 498.226562 200.058594 C 498.226562 201.050781 497.832031 202.003906 497.128906 202.707031 C 496.425781 203.414062 495.472656 203.808594 494.476562 203.808594 L 4.5625 203.808594 C 3.570312 203.808594 2.617188 203.414062 1.914062 202.707031 C 1.210938 202.003906 0.8125 201.050781 0.8125 200.058594 L 0.8125 4.164062 C 0.8125 3.167969 1.210938 2.214844 1.914062 1.511719 C 2.617188 0.808594 3.570312 0.414062 4.5625 0.414062 Z M 4.5625 0.414062 " clip-rule="nonzero"/></clipPath><clipPath id="0450d7c515"><rect x="0" width="499" y="0" height="204"/></clipPath><clipPath id="8a1e8c2133"><path d="M 485.816406 854.414062 L 983.0625 854.414062 L 983.0625 1057.664062 L 485.816406 1057.664062 Z M 485.816406 854.414062 " clip-rule="nonzero"/></clipPath><clipPath id="1b43429342"><path d="M 489.566406 854.414062 L 979.476562 854.414062 C 980.46875 854.414062 981.421875 854.808594 982.128906 855.511719 C 982.832031 856.214844 983.226562 857.167969 983.226562 858.164062 L 983.226562 1054.054688 C 983.226562 1055.050781 982.832031 1056.003906 982.128906 1056.707031 C 981.421875 1057.410156 980.46875 1057.804688 979.476562 1057.804688 L 489.566406 1057.804688 C 488.574219 1057.804688 487.617188 1057.410156 486.914062 1056.707031 C 486.210938 1056.003906 485.816406 1055.050781 485.816406 1054.054688 L 485.816406 858.164062 C 485.816406 857.167969 486.210938 856.214844 486.914062 855.511719 C 487.617188 854.808594 488.574219 854.414062 489.566406 854.414062 Z M 489.566406 854.414062 " clip-rule="nonzero"/></clipPath></defs><g clip-path="url(#6d62560c96)"><path fill="#5ce1e6" d="M 1890.050781 1127.027344 L 1890.050781 226.9375 C 1890.050781 224.929688 1890 222.925781 1889.902344 220.921875 C 1889.804688 218.917969 1889.65625 216.917969 1889.460938 214.921875 C 1889.261719 212.925781 1889.019531 210.933594 1888.722656 208.949219 C 1888.429688 206.96875 1888.085938 204.992188 1887.695312 203.023438 C 1887.304688 201.054688 1886.863281 199.097656 1886.378906 197.152344 C 1885.890625 195.207031 1885.355469 193.273438 1884.773438 191.355469 C 1884.191406 189.433594 1883.5625 187.53125 1882.886719 185.640625 C 1882.210938 183.753906 1881.488281 181.882812 1880.71875 180.027344 C 1879.953125 178.175781 1879.140625 176.34375 1878.28125 174.527344 C 1877.425781 172.714844 1876.523438 170.925781 1875.578125 169.15625 C 1874.632812 167.386719 1873.644531 165.640625 1872.613281 163.921875 C 1871.582031 162.199219 1870.507812 160.503906 1869.394531 158.835938 C 1868.277344 157.167969 1867.125 155.53125 1865.929688 153.917969 C 1864.734375 152.308594 1863.5 150.726562 1862.226562 149.175781 C 1860.953125 147.625 1859.644531 146.105469 1858.296875 144.621094 C 1856.949219 143.132812 1855.566406 141.679688 1854.148438 140.261719 C 1852.730469 138.84375 1851.277344 137.460938 1849.792969 136.113281 C 1848.304688 134.765625 1846.785156 133.457031 1845.234375 132.183594 C 1843.683594 130.910156 1842.105469 129.679688 1840.492188 128.484375 C 1838.882812 127.289062 1837.242188 126.132812 1835.574219 125.019531 C 1833.90625 123.902344 1832.210938 122.832031 1830.492188 121.800781 C 1828.769531 120.769531 1827.027344 119.78125 1825.257812 118.835938 C 1823.488281 117.890625 1821.695312 116.988281 1819.882812 116.128906 C 1818.070312 115.273438 1816.234375 114.460938 1814.382812 113.691406 C 1812.527344 112.921875 1810.65625 112.203125 1808.769531 111.527344 C 1806.878906 110.851562 1804.976562 110.222656 1803.054688 109.640625 C 1801.136719 109.054688 1799.203125 108.523438 1797.257812 108.035156 C 1795.3125 107.546875 1793.355469 107.109375 1791.386719 106.714844 C 1789.417969 106.324219 1787.445312 105.980469 1785.460938 105.6875 C 1783.476562 105.394531 1781.484375 105.148438 1779.488281 104.949219 C 1777.492188 104.753906 1775.492188 104.605469 1773.488281 104.507812 C 1771.484375 104.410156 1769.480469 104.359375 1767.472656 104.359375 L 416.519531 104.359375 C 414.511719 104.359375 412.507812 104.410156 410.503906 104.507812 C 408.5 104.605469 406.5 104.753906 404.503906 104.949219 C 402.507812 105.148438 400.519531 105.394531 398.535156 105.6875 C 396.550781 105.980469 394.574219 106.324219 392.605469 106.714844 C 390.640625 107.105469 388.683594 107.546875 386.734375 108.035156 C 384.789062 108.519531 382.859375 109.054688 380.9375 109.636719 C 379.019531 110.222656 377.113281 110.851562 375.226562 111.527344 C 373.335938 112.203125 371.464844 112.921875 369.613281 113.691406 C 367.757812 114.457031 365.925781 115.269531 364.113281 116.128906 C 362.296875 116.988281 360.507812 117.886719 358.738281 118.835938 C 356.96875 119.78125 355.222656 120.769531 353.503906 121.800781 C 351.78125 122.832031 350.089844 123.902344 348.421875 125.019531 C 346.753906 126.132812 345.113281 127.289062 343.5 128.480469 C 341.890625 129.675781 340.308594 130.910156 338.757812 132.183594 C 337.207031 133.457031 335.6875 134.765625 334.203125 136.113281 C 332.714844 137.460938 331.265625 138.84375 329.84375 140.261719 C 328.425781 141.679688 327.042969 143.132812 325.695312 144.621094 C 324.351562 146.105469 323.039062 147.625 321.765625 149.175781 C 320.496094 150.726562 319.261719 152.308594 318.066406 153.917969 C 316.871094 155.527344 315.714844 157.167969 314.601562 158.835938 C 313.488281 160.503906 312.414062 162.199219 311.382812 163.917969 C 310.351562 165.640625 309.363281 167.386719 308.417969 169.15625 C 307.472656 170.921875 306.570312 172.714844 305.710938 174.527344 C 304.855469 176.34375 304.042969 178.175781 303.273438 180.027344 C 302.507812 181.882812 301.785156 183.753906 301.109375 185.640625 C 300.433594 187.53125 299.804688 189.433594 299.222656 191.355469 C 298.640625 193.273438 298.105469 195.207031 297.617188 197.152344 C 297.128906 199.097656 296.691406 201.054688 296.300781 203.023438 C 295.90625 204.992188 295.566406 206.964844 295.269531 208.949219 C 294.976562 210.933594 294.730469 212.925781 294.535156 214.921875 C 294.335938 216.917969 294.191406 218.917969 294.089844 220.921875 C 293.992188 222.925781 293.945312 224.929688 293.945312 226.9375 L 293.945312 1127.027344 C 293.945312 1129.03125 293.992188 1131.035156 294.089844 1133.039062 C 294.191406 1135.042969 294.335938 1137.042969 294.535156 1139.039062 C 294.730469 1141.035156 294.976562 1143.027344 295.269531 1145.011719 C 295.566406 1146.996094 295.90625 1148.972656 296.296875 1150.9375 C 296.691406 1152.90625 297.128906 1154.863281 297.617188 1156.808594 C 298.105469 1158.753906 298.640625 1160.6875 299.222656 1162.609375 C 299.804688 1164.527344 300.433594 1166.433594 301.109375 1168.320312 C 301.785156 1170.210938 302.507812 1172.082031 303.273438 1173.933594 C 304.042969 1175.789062 304.855469 1177.621094 305.710938 1179.433594 C 306.570312 1181.246094 307.472656 1183.039062 308.417969 1184.808594 C 309.363281 1186.578125 310.351562 1188.320312 311.382812 1190.042969 C 312.414062 1191.761719 313.488281 1193.457031 314.601562 1195.125 C 315.714844 1196.792969 316.871094 1198.433594 318.066406 1200.042969 C 319.261719 1201.65625 320.496094 1203.238281 321.765625 1204.789062 C 323.039062 1206.339844 324.347656 1207.855469 325.695312 1209.34375 C 327.042969 1210.828125 328.425781 1212.28125 329.84375 1213.699219 C 331.261719 1215.117188 332.714844 1216.5 334.203125 1217.847656 C 335.6875 1219.195312 337.207031 1220.507812 338.757812 1221.777344 C 340.308594 1223.050781 341.890625 1224.285156 343.5 1225.480469 C 345.113281 1226.675781 346.75 1227.828125 348.417969 1228.945312 C 350.085938 1230.058594 351.78125 1231.132812 353.503906 1232.164062 C 355.222656 1233.195312 356.96875 1234.183594 358.738281 1235.128906 C 360.507812 1236.074219 362.296875 1236.976562 364.113281 1237.832031 C 365.925781 1238.691406 367.757812 1239.503906 369.613281 1240.273438 C 371.464844 1241.039062 373.335938 1241.761719 375.226562 1242.4375 C 377.113281 1243.113281 379.019531 1243.742188 380.9375 1244.324219 C 382.855469 1244.90625 384.789062 1245.441406 386.734375 1245.929688 C 388.683594 1246.417969 390.636719 1246.855469 392.605469 1247.246094 C 394.574219 1247.636719 396.550781 1247.980469 398.535156 1248.277344 C 400.519531 1248.570312 402.507812 1248.816406 404.503906 1249.011719 C 406.5 1249.207031 408.5 1249.355469 410.503906 1249.453125 C 412.507812 1249.554688 414.511719 1249.601562 416.519531 1249.601562 L 924.757812 1249.601562 L 924.757812 1320.535156 C 924.757812 1322.152344 924.71875 1323.769531 924.640625 1325.386719 C 924.5625 1327.003906 924.441406 1328.617188 924.28125 1330.230469 C 924.125 1331.839844 923.925781 1333.445312 923.6875 1335.046875 C 923.449219 1336.648438 923.175781 1338.242188 922.859375 1339.832031 C 922.542969 1341.417969 922.1875 1343 921.792969 1344.570312 C 921.402344 1346.140625 920.96875 1347.699219 920.5 1349.246094 C 920.03125 1350.796875 919.523438 1352.332031 918.976562 1353.859375 C 918.429688 1355.382812 917.847656 1356.890625 917.230469 1358.386719 C 916.609375 1359.882812 915.953125 1361.363281 915.261719 1362.824219 C 914.570312 1364.289062 913.839844 1365.734375 913.078125 1367.164062 C 912.316406 1368.589844 911.515625 1370 910.683594 1371.386719 C 909.851562 1372.773438 908.988281 1374.140625 908.085938 1375.488281 C 907.1875 1376.835938 906.257812 1378.15625 905.292969 1379.457031 C 904.328125 1380.757812 903.332031 1382.035156 902.304688 1383.285156 C 901.277344 1384.535156 900.222656 1385.761719 899.132812 1386.960938 C 898.046875 1388.160156 896.929688 1389.332031 895.785156 1390.476562 C 894.640625 1391.621094 893.46875 1392.738281 892.269531 1393.824219 C 891.070312 1394.914062 889.84375 1395.96875 888.59375 1396.996094 C 887.339844 1398.023438 886.066406 1399.019531 884.765625 1399.984375 C 883.464844 1400.949219 882.140625 1401.878906 880.796875 1402.777344 C 879.449219 1403.679688 878.082031 1404.542969 876.695312 1405.375 C 875.304688 1406.207031 873.898438 1407.003906 872.46875 1407.769531 C 871.042969 1408.53125 869.597656 1409.257812 868.132812 1409.953125 C 866.667969 1410.644531 865.191406 1411.300781 863.695312 1411.917969 C 862.199219 1412.539062 860.6875 1413.121094 859.164062 1413.667969 C 857.640625 1414.210938 856.105469 1414.71875 854.554688 1415.1875 C 853.003906 1415.660156 851.445312 1416.089844 849.875 1416.484375 C 848.304688 1416.878906 846.726562 1417.230469 845.136719 1417.546875 C 843.550781 1417.863281 841.957031 1418.140625 840.355469 1418.378906 C 838.753906 1418.613281 837.148438 1418.8125 835.535156 1418.972656 C 833.925781 1419.128906 832.3125 1419.25 830.695312 1419.328125 C 829.078125 1419.40625 827.460938 1419.449219 825.839844 1419.449219 L 715.152344 1419.449219 C 713.578125 1419.449219 712.003906 1419.488281 710.433594 1419.5625 C 708.859375 1419.640625 707.289062 1419.757812 705.722656 1419.910156 C 704.15625 1420.066406 702.597656 1420.257812 701.039062 1420.488281 C 699.480469 1420.71875 697.933594 1420.988281 696.386719 1421.296875 C 694.84375 1421.601562 693.308594 1421.949219 691.78125 1422.332031 C 690.253906 1422.714844 688.738281 1423.132812 687.234375 1423.589844 C 685.726562 1424.046875 684.230469 1424.539062 682.75 1425.070312 C 681.269531 1425.601562 679.800781 1426.167969 678.347656 1426.769531 C 676.890625 1427.371094 675.453125 1428.007812 674.03125 1428.683594 C 672.609375 1429.355469 671.203125 1430.0625 669.8125 1430.804688 C 668.425781 1431.546875 667.058594 1432.320312 665.707031 1433.132812 C 664.355469 1433.941406 663.027344 1434.78125 661.71875 1435.65625 C 660.410156 1436.53125 659.125 1437.4375 657.859375 1438.375 C 656.59375 1439.3125 655.355469 1440.28125 654.136719 1441.28125 C 652.921875 1442.277344 651.730469 1443.304688 650.5625 1444.363281 C 649.398438 1445.417969 648.257812 1446.503906 647.144531 1447.617188 C 646.03125 1448.730469 644.945312 1449.871094 643.890625 1451.035156 C 642.832031 1452.203125 641.804688 1453.394531 640.804688 1454.609375 C 639.808594 1455.828125 638.839844 1457.066406 637.902344 1458.332031 C 636.964844 1459.597656 636.058594 1460.882812 635.183594 1462.191406 C 634.308594 1463.5 633.46875 1464.828125 632.660156 1466.179688 C 631.847656 1467.53125 631.074219 1468.898438 630.332031 1470.285156 C 629.589844 1471.675781 628.882812 1473.082031 628.210938 1474.503906 C 627.535156 1475.925781 626.898438 1477.363281 626.296875 1478.820312 C 625.695312 1480.273438 625.128906 1481.742188 624.597656 1483.222656 C 624.066406 1484.703125 623.574219 1486.199219 623.117188 1487.707031 C 622.660156 1489.210938 622.242188 1490.726562 621.859375 1492.253906 C 621.476562 1493.78125 621.128906 1495.316406 620.824219 1496.859375 C 620.515625 1498.40625 620.246094 1499.953125 620.015625 1501.511719 C 619.785156 1503.070312 619.59375 1504.628906 619.4375 1506.195312 C 619.285156 1507.761719 619.167969 1509.332031 619.089844 1510.90625 C 619.015625 1512.476562 618.976562 1514.050781 618.976562 1515.625 L 1565.03125 1515.625 C 1565.03125 1514.050781 1564.992188 1512.476562 1564.917969 1510.902344 C 1564.839844 1509.332031 1564.722656 1507.761719 1564.570312 1506.195312 C 1564.414062 1504.628906 1564.222656 1503.066406 1563.992188 1501.511719 C 1563.761719 1499.953125 1563.492188 1498.402344 1563.183594 1496.859375 C 1562.878906 1495.316406 1562.53125 1493.78125 1562.148438 1492.253906 C 1561.765625 1490.726562 1561.347656 1489.210938 1560.890625 1487.703125 C 1560.433594 1486.199219 1559.941406 1484.703125 1559.410156 1483.222656 C 1558.878906 1481.742188 1558.3125 1480.273438 1557.710938 1478.816406 C 1557.109375 1477.363281 1556.472656 1475.925781 1555.796875 1474.503906 C 1555.125 1473.078125 1554.417969 1471.675781 1553.675781 1470.285156 C 1552.933594 1468.898438 1552.15625 1467.527344 1551.347656 1466.179688 C 1550.539062 1464.828125 1549.699219 1463.5 1548.824219 1462.191406 C 1547.949219 1460.882812 1547.042969 1459.59375 1546.105469 1458.332031 C 1545.167969 1457.066406 1544.199219 1455.828125 1543.203125 1454.609375 C 1542.203125 1453.394531 1541.175781 1452.203125 1540.117188 1451.035156 C 1539.0625 1449.867188 1537.976562 1448.730469 1536.863281 1447.617188 C 1535.75 1446.503906 1534.609375 1445.417969 1533.445312 1444.363281 C 1532.277344 1443.304688 1531.085938 1442.277344 1529.871094 1441.277344 C 1528.652344 1440.28125 1527.414062 1439.3125 1526.148438 1438.375 C 1524.882812 1437.4375 1523.597656 1436.53125 1522.289062 1435.65625 C 1520.980469 1434.78125 1519.652344 1433.941406 1518.300781 1433.128906 C 1516.949219 1432.320312 1515.582031 1431.546875 1514.195312 1430.804688 C 1512.804688 1430.0625 1511.398438 1429.355469 1509.976562 1428.679688 C 1508.554688 1428.007812 1507.117188 1427.371094 1505.660156 1426.769531 C 1504.207031 1426.167969 1502.738281 1425.601562 1501.257812 1425.070312 C 1499.777344 1424.539062 1498.28125 1424.046875 1496.773438 1423.589844 C 1495.269531 1423.132812 1493.753906 1422.710938 1492.226562 1422.328125 C 1490.699219 1421.949219 1489.164062 1421.601562 1487.621094 1421.296875 C 1486.078125 1420.988281 1484.527344 1420.71875 1482.96875 1420.488281 C 1481.414062 1420.257812 1479.851562 1420.066406 1478.285156 1419.910156 C 1476.71875 1419.757812 1475.148438 1419.640625 1473.578125 1419.5625 C 1472.003906 1419.484375 1470.429688 1419.449219 1468.855469 1419.449219 L 1358.152344 1419.449219 C 1356.535156 1419.449219 1354.917969 1419.40625 1353.300781 1419.328125 C 1351.683594 1419.25 1350.066406 1419.128906 1348.457031 1418.972656 C 1346.847656 1418.8125 1345.238281 1418.613281 1343.640625 1418.378906 C 1342.039062 1418.140625 1340.441406 1417.863281 1338.855469 1417.546875 C 1337.265625 1417.230469 1335.6875 1416.878906 1334.117188 1416.484375 C 1332.546875 1416.089844 1330.988281 1415.660156 1329.4375 1415.1875 C 1327.890625 1414.71875 1326.351562 1414.210938 1324.828125 1413.667969 C 1323.304688 1413.121094 1321.792969 1412.539062 1320.300781 1411.917969 C 1318.804688 1411.300781 1317.324219 1410.644531 1315.859375 1409.953125 C 1314.398438 1409.257812 1312.953125 1408.53125 1311.523438 1407.769531 C 1310.097656 1407.003906 1308.6875 1406.207031 1307.300781 1405.375 C 1305.910156 1404.542969 1304.542969 1403.679688 1303.199219 1402.777344 C 1301.851562 1401.878906 1300.527344 1400.949219 1299.226562 1399.984375 C 1297.929688 1399.019531 1296.652344 1398.023438 1295.402344 1396.996094 C 1294.148438 1395.96875 1292.921875 1394.914062 1291.722656 1393.824219 C 1290.523438 1392.738281 1289.351562 1391.621094 1288.207031 1390.476562 C 1287.0625 1389.332031 1285.945312 1388.160156 1284.859375 1386.960938 C 1283.773438 1385.761719 1282.714844 1384.535156 1281.6875 1383.285156 C 1280.660156 1382.035156 1279.664062 1380.757812 1278.703125 1379.457031 C 1277.738281 1378.15625 1276.804688 1376.835938 1275.90625 1375.488281 C 1275.007812 1374.140625 1274.140625 1372.773438 1273.308594 1371.386719 C 1272.476562 1370 1271.679688 1368.589844 1270.914062 1367.164062 C 1270.152344 1365.734375 1269.425781 1364.289062 1268.730469 1362.824219 C 1268.039062 1361.363281 1267.382812 1359.882812 1266.765625 1358.386719 C 1266.144531 1356.890625 1265.5625 1355.382812 1265.015625 1353.859375 C 1264.472656 1352.332031 1263.964844 1350.796875 1263.496094 1349.246094 C 1263.023438 1347.699219 1262.59375 1346.140625 1262.199219 1344.570312 C 1261.804688 1343 1261.449219 1341.417969 1261.136719 1339.832031 C 1260.820312 1338.242188 1260.542969 1336.648438 1260.304688 1335.046875 C 1260.066406 1333.445312 1259.871094 1331.839844 1259.710938 1330.230469 C 1259.550781 1328.617188 1259.433594 1327.003906 1259.351562 1325.386719 C 1259.273438 1323.769531 1259.234375 1322.152344 1259.234375 1320.535156 L 1259.234375 1249.601562 L 1767.472656 1249.601562 C 1769.480469 1249.601562 1771.484375 1249.554688 1773.488281 1249.453125 C 1775.492188 1249.355469 1777.492188 1249.207031 1779.488281 1249.011719 C 1781.484375 1248.816406 1783.476562 1248.570312 1785.460938 1248.277344 C 1787.445312 1247.980469 1789.417969 1247.636719 1791.386719 1247.246094 C 1793.355469 1246.855469 1795.3125 1246.417969 1797.257812 1245.929688 C 1799.203125 1245.441406 1801.136719 1244.90625 1803.054688 1244.324219 C 1804.976562 1243.742188 1806.878906 1243.113281 1808.769531 1242.4375 C 1810.65625 1241.761719 1812.527344 1241.039062 1814.382812 1240.273438 C 1816.234375 1239.503906 1818.066406 1238.691406 1819.882812 1237.832031 C 1821.695312 1236.976562 1823.488281 1236.074219 1825.253906 1235.128906 C 1827.023438 1234.183594 1828.769531 1233.195312 1830.492188 1232.164062 C 1832.210938 1231.132812 1833.90625 1230.058594 1835.574219 1228.945312 C 1837.242188 1227.832031 1838.882812 1226.675781 1840.492188 1225.480469 C 1842.101562 1224.285156 1843.683594 1223.050781 1845.234375 1221.777344 C 1846.785156 1220.507812 1848.304688 1219.195312 1849.789062 1217.847656 C 1851.277344 1216.503906 1852.730469 1215.121094 1854.148438 1213.699219 C 1855.566406 1212.28125 1856.949219 1210.828125 1858.296875 1209.34375 C 1859.644531 1207.855469 1860.953125 1206.339844 1862.226562 1204.789062 C 1863.5 1203.238281 1864.734375 1201.65625 1865.925781 1200.042969 C 1867.121094 1198.433594 1868.277344 1196.792969 1869.390625 1195.125 C 1870.507812 1193.457031 1871.578125 1191.765625 1872.609375 1190.042969 C 1873.640625 1188.324219 1874.628906 1186.578125 1875.578125 1184.808594 C 1876.523438 1183.039062 1877.421875 1181.246094 1878.28125 1179.433594 C 1879.140625 1177.621094 1879.953125 1175.789062 1880.71875 1173.933594 C 1881.488281 1172.082031 1882.207031 1170.210938 1882.882812 1168.320312 C 1883.558594 1166.433594 1884.191406 1164.527344 1884.773438 1162.609375 C 1885.355469 1160.6875 1885.890625 1158.753906 1886.375 1156.808594 C 1886.863281 1154.863281 1887.304688 1152.90625 1887.695312 1150.941406 C 1888.085938 1148.972656 1888.429688 1146.996094 1888.722656 1145.011719 C 1889.019531 1143.027344 1889.261719 1141.035156 1889.460938 1139.039062 C 1889.65625 1137.042969 1889.804688 1135.042969 1889.902344 1133.039062 C 1890 1131.035156 1890.050781 1129.03125 1890.050781 1127.027344 Z M 368.761719 1081.785156 L 368.761719 232.273438 C 368.761719 230.585938 368.84375 228.902344 369.007812 227.222656 C 369.175781 225.542969 369.421875 223.878906 369.75 222.222656 C 370.082031 220.566406 370.492188 218.933594 370.980469 217.316406 C 371.46875 215.703125 372.039062 214.117188 372.683594 212.558594 C 373.328125 211 374.050781 209.476562 374.84375 207.988281 C 375.640625 206.5 376.507812 205.054688 377.445312 203.648438 C 378.382812 202.246094 379.386719 200.894531 380.457031 199.589844 C 381.527344 198.285156 382.660156 197.035156 383.851562 195.84375 C 385.046875 194.648438 386.296875 193.519531 387.597656 192.449219 C 388.902344 191.378906 390.257812 190.375 391.660156 189.4375 C 393.0625 188.5 394.507812 187.632812 395.996094 186.835938 C 397.484375 186.042969 399.007812 185.320312 400.570312 184.675781 C 402.128906 184.03125 403.714844 183.460938 405.328125 182.972656 C 406.945312 182.484375 408.578125 182.074219 410.234375 181.742188 C 411.890625 181.414062 413.554688 181.167969 415.234375 181.003906 C 416.914062 180.835938 418.597656 180.753906 420.285156 180.753906 L 1763.707031 180.753906 C 1765.394531 180.753906 1767.078125 180.835938 1768.757812 181.003906 C 1770.4375 181.167969 1772.105469 181.414062 1773.757812 181.742188 C 1775.414062 182.074219 1777.050781 182.484375 1778.664062 182.972656 C 1780.277344 183.460938 1781.867188 184.03125 1783.425781 184.675781 C 1784.984375 185.320312 1786.507812 186.042969 1787.996094 186.835938 C 1789.484375 187.632812 1790.929688 188.5 1792.332031 189.4375 C 1793.734375 190.375 1795.089844 191.378906 1796.394531 192.449219 C 1797.699219 193.519531 1798.949219 194.648438 1800.140625 195.84375 C 1801.332031 197.035156 1802.464844 198.285156 1803.535156 199.589844 C 1804.605469 200.894531 1805.609375 202.246094 1806.546875 203.648438 C 1807.484375 205.054688 1808.351562 206.5 1809.148438 207.988281 C 1809.945312 209.476562 1810.664062 211 1811.308594 212.558594 C 1811.957031 214.117188 1812.523438 215.703125 1813.011719 217.316406 C 1813.503906 218.933594 1813.914062 220.566406 1814.242188 222.222656 C 1814.570312 223.878906 1814.820312 225.542969 1814.984375 227.222656 C 1815.148438 228.902344 1815.234375 230.585938 1815.234375 232.273438 L 1815.234375 1081.785156 C 1815.234375 1083.472656 1815.148438 1085.15625 1814.984375 1086.835938 C 1814.820312 1088.515625 1814.570312 1090.183594 1814.242188 1091.839844 C 1813.914062 1093.492188 1813.503906 1095.128906 1813.011719 1096.742188 C 1812.523438 1098.359375 1811.957031 1099.945312 1811.308594 1101.503906 C 1810.664062 1103.0625 1809.945312 1104.585938 1809.148438 1106.074219 C 1808.351562 1107.5625 1807.484375 1109.007812 1806.546875 1110.410156 C 1805.609375 1111.8125 1804.605469 1113.167969 1803.535156 1114.472656 C 1802.464844 1115.777344 1801.332031 1117.023438 1800.140625 1118.21875 C 1798.949219 1119.410156 1797.699219 1120.542969 1796.394531 1121.613281 C 1795.089844 1122.683594 1793.734375 1123.6875 1792.332031 1124.625 C 1790.929688 1125.5625 1789.484375 1126.429688 1787.996094 1127.222656 C 1786.507812 1128.019531 1784.984375 1128.738281 1783.425781 1129.386719 C 1781.867188 1130.03125 1780.277344 1130.597656 1778.664062 1131.089844 C 1777.050781 1131.578125 1775.414062 1131.988281 1773.757812 1132.316406 C 1772.105469 1132.644531 1770.4375 1132.894531 1768.757812 1133.058594 C 1767.078125 1133.222656 1765.394531 1133.304688 1763.707031 1133.304688 L 420.285156 1133.304688 C 418.597656 1133.304688 416.914062 1133.222656 415.234375 1133.058594 C 413.554688 1132.894531 411.890625 1132.644531 410.234375 1132.316406 C 408.578125 1131.988281 406.945312 1131.578125 405.328125 1131.089844 C 403.714844 1130.597656 402.128906 1130.03125 400.570312 1129.386719 C 399.007812 1128.738281 397.484375 1128.019531 395.996094 1127.222656 C 394.507812 1126.429688 393.0625 1125.5625 391.660156 1124.625 C 390.257812 1123.6875 388.902344 1122.683594 387.597656 1121.613281 C 386.296875 1120.542969 385.046875 1119.410156 383.851562 1118.21875 C 382.660156 1117.023438 381.527344 1115.777344 380.457031 1114.472656 C 379.386719 1113.167969 378.382812 1111.8125 377.445312 1110.410156 C 376.507812 1109.007812 375.640625 1107.5625 374.84375 1106.074219 C 374.050781 1104.585938 373.328125 1103.0625 372.683594 1101.503906 C 372.039062 1099.945312 371.46875 1098.355469 370.980469 1096.742188 C 370.492188 1095.128906 370.082031 1093.492188 369.75 1091.839844 C 369.421875 1090.183594 369.175781 1088.515625 369.007812 1086.835938 C 368.84375 1085.15625 368.761719 1083.472656 368.761719 1081.785156 Z M 368.761719 1081.785156 " fill-opacity="1" fill-rule="nonzero"/></g><g clip-path="url(#da2b35a78d)"><path fill="#ffffff" d="M 1715.4375 650.699219 C 1711.488281 643.957031 1707.121094 637.5 1702.335938 631.328125 C 1697.550781 625.152344 1692.386719 619.3125 1686.84375 613.808594 C 1681.300781 608.300781 1675.425781 603.175781 1669.222656 598.433594 C 1663.015625 593.6875 1656.527344 589.363281 1649.761719 585.460938 C 1629.011719 573.398438 1607.554688 565.742188 1583.328125 562.425781 L 1583.328125 475.675781 C 1584.785156 475.070312 1586.21875 474.414062 1587.628906 473.703125 C 1589.039062 472.992188 1590.417969 472.230469 1591.773438 471.414062 C 1593.125 470.601562 1594.445312 469.738281 1595.734375 468.824219 C 1597.019531 467.914062 1598.273438 466.953125 1599.492188 465.945312 C 1600.707031 464.941406 1601.886719 463.890625 1603.023438 462.796875 C 1604.164062 461.703125 1605.257812 460.570312 1606.3125 459.394531 C 1607.367188 458.21875 1608.375 457.007812 1609.339844 455.757812 C 1610.304688 454.503906 1611.21875 453.222656 1612.085938 451.902344 C 1612.953125 450.582031 1613.773438 449.234375 1614.539062 447.855469 C 1615.308594 446.476562 1616.023438 445.070312 1616.683594 443.636719 C 1617.347656 442.203125 1617.957031 440.746094 1618.507812 439.269531 C 1619.0625 437.789062 1619.5625 436.292969 1620.003906 434.777344 C 1620.445312 433.261719 1620.832031 431.734375 1621.160156 430.191406 C 1621.488281 428.644531 1621.761719 427.089844 1621.972656 425.527344 C 1622.1875 423.960938 1622.339844 422.390625 1622.4375 420.816406 C 1622.53125 419.242188 1622.570312 417.664062 1622.546875 416.085938 C 1622.550781 415.015625 1622.53125 413.945312 1622.484375 412.875 C 1622.4375 411.808594 1622.363281 410.738281 1622.261719 409.675781 C 1622.164062 408.609375 1622.039062 407.546875 1621.886719 406.488281 C 1621.734375 405.425781 1621.554688 404.371094 1621.351562 403.320312 C 1621.144531 402.273438 1620.917969 401.226562 1620.660156 400.1875 C 1620.40625 399.148438 1620.125 398.117188 1619.816406 397.089844 C 1619.511719 396.066406 1619.179688 395.046875 1618.824219 394.039062 C 1618.464844 393.03125 1618.085938 392.03125 1617.679688 391.039062 C 1617.273438 390.050781 1616.84375 389.070312 1616.390625 388.101562 C 1615.933594 387.132812 1615.457031 386.175781 1614.957031 385.230469 C 1614.457031 384.285156 1613.929688 383.351562 1613.382812 382.429688 C 1612.835938 381.511719 1612.265625 380.605469 1611.675781 379.714844 C 1611.082031 378.820312 1610.46875 377.945312 1609.835938 377.085938 C 1609.199219 376.222656 1608.542969 375.378906 1607.867188 374.546875 C 1607.191406 373.71875 1606.496094 372.90625 1605.777344 372.113281 C 1605.0625 371.316406 1604.324219 370.539062 1603.570312 369.78125 C 1602.816406 369.023438 1602.042969 368.285156 1601.25 367.5625 C 1600.460938 366.84375 1599.652344 366.140625 1598.824219 365.460938 C 1598 364.78125 1597.15625 364.121094 1596.300781 363.480469 C 1595.441406 362.839844 1594.566406 362.222656 1593.679688 361.628906 C 1592.789062 361.03125 1591.886719 360.457031 1590.96875 359.90625 C 1590.054688 359.355469 1589.125 358.824219 1588.179688 358.320312 C 1587.238281 357.8125 1586.28125 357.332031 1585.316406 356.871094 C 1584.347656 356.414062 1583.371094 355.976562 1582.382812 355.566406 C 1581.394531 355.15625 1580.398438 354.769531 1579.390625 354.410156 C 1578.382812 354.046875 1577.367188 353.710938 1576.34375 353.398438 C 1575.320312 353.085938 1574.289062 352.800781 1573.25 352.539062 C 1572.210938 352.277344 1571.167969 352.042969 1570.117188 351.835938 C 1569.070312 351.625 1568.015625 351.441406 1566.957031 351.285156 C 1565.898438 351.125 1564.835938 350.996094 1563.769531 350.890625 C 1562.707031 350.785156 1561.640625 350.707031 1560.570312 350.652344 C 1559.5 350.601562 1558.433594 350.574219 1557.363281 350.574219 C 1556.289062 350.574219 1555.214844 350.601562 1554.144531 350.652344 C 1553.070312 350.707031 1552 350.785156 1550.933594 350.890625 C 1549.863281 350.992188 1548.800781 351.125 1547.738281 351.28125 C 1546.675781 351.4375 1545.617188 351.621094 1544.566406 351.832031 C 1543.511719 352.039062 1542.464844 352.273438 1541.421875 352.535156 C 1540.382812 352.796875 1539.347656 353.082031 1538.320312 353.390625 C 1537.292969 353.703125 1536.273438 354.039062 1535.261719 354.398438 C 1534.25 354.761719 1533.25 355.144531 1532.257812 355.554688 C 1531.265625 355.964844 1530.285156 356.398438 1529.3125 356.859375 C 1528.34375 357.316406 1527.382812 357.796875 1526.4375 358.304688 C 1525.488281 358.808594 1524.554688 359.335938 1523.632812 359.886719 C 1522.710938 360.4375 1521.804688 361.011719 1520.914062 361.605469 C 1520.019531 362.199219 1519.140625 362.816406 1518.277344 363.457031 C 1517.414062 364.09375 1516.566406 364.753906 1515.738281 365.433594 C 1514.90625 366.113281 1514.09375 366.8125 1513.296875 367.53125 C 1512.5 368.25 1511.722656 368.992188 1510.960938 369.75 C 1510.199219 370.507812 1509.460938 371.28125 1508.738281 372.078125 C 1508.015625 372.871094 1507.3125 373.683594 1506.628906 374.511719 C 1505.949219 375.339844 1505.285156 376.183594 1504.644531 377.042969 C 1504.003906 377.90625 1503.382812 378.78125 1502.785156 379.671875 C 1502.1875 380.5625 1501.609375 381.46875 1501.058594 382.390625 C 1500.503906 383.308594 1499.972656 384.242188 1499.464844 385.1875 C 1498.957031 386.132812 1498.472656 387.089844 1498.011719 388.058594 C 1497.546875 389.027344 1497.113281 390.007812 1496.699219 391 C 1496.285156 391.988281 1495.894531 392.988281 1495.53125 394 C 1495.167969 395.007812 1494.828125 396.027344 1494.515625 397.054688 C 1494.199219 398.078125 1493.910156 399.113281 1493.648438 400.152344 C 1493.382812 401.195312 1493.144531 402.242188 1492.933594 403.292969 C 1492.71875 404.34375 1492.535156 405.402344 1492.371094 406.464844 C 1492.210938 407.523438 1492.078125 408.589844 1491.96875 409.65625 C 1491.859375 410.726562 1491.777344 411.796875 1491.722656 412.867188 C 1491.667969 413.9375 1491.636719 415.011719 1491.632812 416.085938 C 1491.632812 442.703125 1505.757812 465.410156 1530.039062 475.675781 L 1530.039062 561.9375 C 1519.980469 563.394531 1510.105469 565.644531 1500.410156 568.6875 C 1490.714844 571.730469 1481.324219 575.527344 1472.238281 580.082031 L 1240.015625 404.242188 C 1241.644531 398.105469 1243.058594 391.75 1243.058594 385.066406 C 1243.058594 344.980469 1210.574219 312.496094 1170.484375 312.496094 C 1130.394531 312.496094 1097.964844 344.980469 1097.964844 385.066406 C 1097.964844 425.15625 1130.449219 457.640625 1170.539062 457.640625 C 1184.226562 457.640625 1196.886719 453.621094 1207.804688 447.046875 L 1223.015625 458.566406 L 1431.335938 608.761719 C 1420.308594 618.867188 1410.042969 630.382812 1401.839844 643.3125 C 1385.21875 669.65625 1375.058594 698.609375 1375.058594 730.226562 L 1375.058594 736.742188 C 1375.097656 747.464844 1376.074219 758.097656 1377.988281 768.644531 C 1379.90625 779.195312 1382.730469 789.492188 1386.464844 799.539062 C 1392.769531 816.703125 1402.003906 832.347656 1413.464844 846.472656 L 1344.257812 915.839844 C 1323.78125 908.238281 1300.800781 913.289062 1285.320312 928.769531 C 1274.78125 939.253906 1268.859375 953.539062 1268.914062 968.425781 C 1268.96875 983.308594 1274.78125 997.488281 1285.375 1008.078125 C 1295.96875 1018.671875 1310.144531 1024.539062 1325.027344 1024.539062 C 1339.914062 1024.539062 1354.199219 1018.671875 1364.683594 1008.078125 C 1375.167969 997.488281 1381.144531 983.308594 1381.089844 968.425781 C 1381.085938 962.675781 1380.214844 957.0625 1378.480469 951.585938 L 1449.96875 880.097656 C 1459.746094 886.886719 1470.339844 892.59375 1481.746094 897.480469 C 1493.46875 902.621094 1505.59375 906.511719 1518.121094 909.144531 C 1530.648438 911.78125 1543.3125 913.109375 1556.113281 913.125 L 1561 913.125 C 1590.988281 913.125 1619.289062 906.0625 1645.851562 891.667969 C 1652.648438 888.023438 1659.175781 883.949219 1665.433594 879.445312 C 1671.691406 874.9375 1677.628906 870.042969 1683.242188 864.753906 C 1688.855469 859.46875 1694.097656 853.832031 1698.96875 847.855469 C 1703.839844 841.875 1708.296875 835.601562 1712.339844 829.035156 C 1729.015625 802.417969 1738.144531 772.921875 1738.144531 740.492188 L 1738.144531 738.863281 C 1738.144531 706.976562 1730.753906 677.589844 1715.328125 650.644531 Z M 1628.140625 800.734375 C 1608.75 822.300781 1586.421875 835.609375 1561.21875 835.609375 L 1556.4375 835.609375 C 1542.042969 835.609375 1527.917969 831.644531 1514.175781 824.363281 C 1506.640625 820.445312 1499.734375 815.628906 1493.453125 809.910156 C 1487.175781 804.191406 1481.734375 797.765625 1477.128906 790.628906 C 1467.132812 776.507812 1461.703125 761.078125 1461.703125 744.730469 L 1461.703125 739.839844 C 1461.703125 723.761719 1464.796875 708.496094 1472.566406 694.101562 C 1480.878906 677.804688 1492.121094 666.125 1507.058594 656.402344 C 1522 646.679688 1537.371094 642.007812 1554.863281 642.007812 L 1556.492188 642.007812 C 1572.246094 642.007812 1587.292969 645.105469 1601.414062 652.328125 C 1608.570312 656.089844 1615.136719 660.691406 1621.117188 666.128906 C 1627.097656 671.566406 1632.300781 677.667969 1636.726562 684.433594 C 1641.105469 691.214844 1644.628906 698.417969 1647.300781 706.039062 C 1649.972656 713.660156 1651.71875 721.484375 1652.53125 729.519531 L 1652.914062 739.675781 C 1652.914062 761.785156 1644.4375 782.265625 1627.542969 800.84375 Z M 1628.140625 800.734375 " fill-opacity="1" fill-rule="nonzero"/></g><g clip-path="url(#d41e7a949b)"><g clip-path="url(#2ec31d033b)"><g transform="matrix(1, 0, 0, 1, 485, 279)"><g clip-path="url(#044893430d)"><g clip-path="url(#f10e6d337f)"><g clip-path="url(#9f73c7aebb)"><path fill="#5ce1e6" d="M 0.8125 0.230469 L 498.171875 0.230469 L 498.171875 203.625 L 0.8125 203.625 Z M 0.8125 0.230469 " fill-opacity="1" fill-rule="nonzero"/></g></g></g></g></g></g><g clip-path="url(#b8a15184b6)"><g clip-path="url(#ace562ac6d)"><path stroke-linecap="butt" transform="matrix(0.75, 0, 0, 0.75, 485.81691, 279.232106)" fill="none" stroke-linejoin="miter" d="M 4.999329 -0.00218287 L 658.212926 -0.00218287 C 659.535843 -0.00218287 660.806676 0.529067 661.749385 1.466567 C 662.686885 2.404067 663.212926 3.674901 663.212926 4.997818 L 663.212926 266.18534 C 663.212926 267.513465 662.686885 268.784298 661.749385 269.721798 C 660.806676 270.659298 659.535843 271.18534 658.212926 271.18534 L 4.999329 271.18534 C 3.676412 271.18534 2.40037 270.659298 1.46287 269.721798 C 0.52537 268.784298 -0.000671601 267.513465 -0.000671601 266.18534 L -0.000671601 4.997818 C -0.000671601 3.674901 0.52537 2.404067 1.46287 1.466567 C 2.40037 0.529067 3.676412 -0.00218287 4.999329 -0.00218287 Z M 4.999329 -0.00218287 " stroke="#5ce1e6" stroke-width="8" stroke-opacity="1" stroke-miterlimit="4"/></g></g><g clip-path="url(#b0549e9cf2)"><g clip-path="url(#0179f3a1c2)"><g transform="matrix(1, 0, 0, 1, 485, 566)"><g clip-path="url(#753175c956)"><g clip-path="url(#dfa11844fc)"><g clip-path="url(#1be0edc01f)"><path fill="#ff914d" d="M 0.8125 0.824219 L 498.171875 0.824219 L 498.171875 204.214844 L 0.8125 204.214844 Z M 0.8125 0.824219 " fill-opacity="1" fill-rule="nonzero"/></g></g></g></g></g></g><g clip-path="url(#acd573b1b2)"><g clip-path="url(#367d71fbcd)"><path stroke-linecap="butt" transform="matrix(0.75, 0, 0, 0.75, 485.81691, 566.82322)" fill="none" stroke-linejoin="miter" d="M 4.999329 0.00133181 L 658.212926 0.00133181 C 659.535843 0.00133181 660.806676 0.527374 661.749385 1.464874 C 662.686885 2.402374 663.212926 3.673207 663.212926 5.001332 L 663.212926 266.188854 C 663.212926 267.511771 662.686885 268.787813 661.749385 269.725313 C 660.806676 270.662813 659.535843 271.188855 658.212926 271.188855 L 4.999329 271.188855 C 3.676412 271.188855 2.40037 270.662813 1.46287 269.725313 C 0.52537 268.787813 -0.000671601 267.511771 -0.000671601 266.188854 L -0.000671601 5.001332 C -0.000671601 3.673207 0.52537 2.402374 1.46287 1.464874 C 2.40037 0.527374 3.676412 0.00133181 4.999329 0.00133181 Z M 4.999329 0.00133181 " stroke="#ff914d" stroke-width="8" stroke-opacity="1" stroke-miterlimit="4"/></g></g><g clip-path="url(#f58ed37db5)"><g clip-path="url(#7b55999762)"><g transform="matrix(1, 0, 0, 1, 485, 854)"><g clip-path="url(#0450d7c515)"><g clip-path="url(#3b9a2657a1)"><g clip-path="url(#79024a48da)"><path fill="#7ed957" d="M 0.8125 0.414062 L 498.171875 0.414062 L 498.171875 203.808594 L 0.8125 203.808594 Z M 0.8125 0.414062 " fill-opacity="1" fill-rule="nonzero"/></g></g></g></g></g></g><g clip-path="url(#8a1e8c2133)"><g clip-path="url(#1b43429342)"><path stroke-linecap="butt" transform="matrix(0.75, 0, 0, 0.75, 485.81691, 854.414259)" fill="none" stroke-linejoin="miter" d="M 4.999329 -0.00026264 L 658.212926 -0.00026264 C 659.535843 -0.00026264 660.806676 0.525779 661.749385 1.463279 C 662.686885 2.400779 663.212926 3.671613 663.212926 4.999738 L 663.212926 266.18726 C 663.212926 267.515385 662.686885 268.786219 661.749385 269.723719 C 660.806676 270.661219 659.535843 271.18726 658.212926 271.18726 L 4.999329 271.18726 C 3.676412 271.18726 2.40037 270.661219 1.46287 269.723719 C 0.52537 268.786219 -0.000671601 267.515385 -0.000671601 266.18726 L -0.000671601 4.999738 C -0.000671601 3.671613 0.52537 2.400779 1.46287 1.463279 C 2.40037 0.525779 3.676412 -0.00026264 4.999329 -0.00026264 Z M 4.999329 -0.00026264 " stroke="#7ed957" stroke-width="8" stroke-opacity="1" stroke-miterlimit="4"/></g></g></svg>