<svg xmlns="http://www.w3.org/2000/svg" xmlns:xlink="http://www.w3.org/1999/xlink" width="1920" zoomAndPan="magnify" viewBox="0 0 1440 809.999993" height="1080" preserveAspectRatio="xMidYMid meet" version="1.0"><defs><g/><clipPath id="6eea188103"><path d="M 310.707031 301.644531 L 411.167969 301.644531 L 411.167969 474.894531 L 310.707031 474.894531 Z M 310.707031 301.644531 " clip-rule="nonzero"/></clipPath><clipPath id="a320451b20"><path d="M 411.398438 331.621094 L 411.398438 445.003906 C 411.398438 452.953125 408.242188 460.578125 402.621094 466.199219 C 397 471.820312 389.375 474.976562 381.425781 474.976562 L 340.679688 474.976562 C 332.730469 474.976562 325.105469 471.820312 319.484375 466.199219 C 313.863281 460.578125 310.707031 452.953125 310.707031 445.003906 L 310.707031 331.621094 C 310.707031 323.671875 313.863281 316.046875 319.484375 310.425781 C 325.105469 304.804688 332.730469 301.644531 340.679688 301.644531 L 381.425781 301.644531 C 389.375 301.644531 397 304.804688 402.621094 310.425781 C 408.242188 316.046875 411.398438 323.671875 411.398438 331.621094 Z M 411.398438 331.621094 " clip-rule="nonzero"/></clipPath><clipPath id="e09a89468f"><rect x="0" width="926" y="0" height="328"/></clipPath><clipPath id="9b80c2d204"><path d="M 195.871094 301.644531 L 296.335938 301.644531 L 296.335938 445.644531 L 195.871094 445.644531 Z M 195.871094 301.644531 " clip-rule="nonzero"/></clipPath><clipPath id="33bfad8ec7"><path d="M 296.566406 331.621094 L 296.566406 415.460938 C 296.566406 423.410156 293.40625 431.035156 287.785156 436.65625 C 282.164062 442.277344 274.539062 445.433594 266.589844 445.433594 L 225.847656 445.433594 C 217.898438 445.433594 210.273438 442.277344 204.652344 436.65625 C 199.03125 431.035156 195.871094 423.410156 195.871094 415.460938 L 195.871094 331.621094 C 195.871094 323.671875 199.03125 316.046875 204.652344 310.425781 C 210.273438 304.804688 217.898438 301.644531 225.847656 301.644531 L 266.589844 301.644531 C 274.539062 301.644531 282.164062 304.804688 287.785156 310.425781 C 293.40625 316.046875 296.566406 323.671875 296.566406 331.621094 Z M 296.566406 331.621094 " clip-rule="nonzero"/></clipPath><clipPath id="122909482e"><path d="M 81.039062 301.644531 L 181.5 301.644531 L 181.5 522.894531 L 81.039062 522.894531 Z M 81.039062 301.644531 " clip-rule="nonzero"/></clipPath><clipPath id="534e99a0b7"><path d="M 181.730469 331.621094 L 181.730469 493.132812 C 181.730469 501.082031 178.570312 508.707031 172.949219 514.328125 C 167.328125 519.949219 159.707031 523.105469 151.757812 523.105469 L 111.011719 523.105469 C 103.0625 523.105469 95.441406 519.949219 89.820312 514.328125 C 84.199219 508.707031 81.039062 501.082031 81.039062 493.132812 L 81.039062 331.621094 C 81.039062 323.671875 84.199219 316.046875 89.820312 310.425781 C 95.441406 304.804688 103.0625 301.644531 111.011719 301.644531 L 151.757812 301.644531 C 159.707031 301.644531 167.328125 304.804688 172.949219 310.425781 C 178.570312 316.046875 181.730469 323.671875 181.730469 331.621094 Z M 181.730469 331.621094 " clip-rule="nonzero"/></clipPath></defs><g clip-path="url(#6eea188103)"><g clip-path="url(#a320451b20)"><path stroke-linecap="butt" transform="matrix(0.75, 0, 0, 0.75, 310.707031, 301.646342)" fill="none" stroke-linejoin="miter" d="M 134.255206 39.966335 L 134.255206 191.143416 C 134.255206 201.742374 130.046873 211.909041 122.552081 219.403832 C 115.05729 226.898624 104.890623 231.106957 94.291665 231.106957 L 39.963541 231.106957 C 29.364583 231.106957 19.197916 226.898624 11.703125 219.403832 C 4.208333 211.909041 -0.000000187964 201.742374 -0.000000187964 191.143416 L -0.000000187964 39.966335 C -0.000000187964 29.367376 4.208333 19.20071 11.703125 11.705918 C 19.197916 4.211127 29.364583 -0.0024149 39.963541 -0.0024149 L 94.291665 -0.0024149 C 104.890623 -0.0024149 115.05729 4.211127 122.552081 11.705918 C 130.046873 19.20071 134.255206 29.367376 134.255206 39.966335 Z M 134.255206 39.966335 " stroke="#64bf3d" stroke-width="86" stroke-opacity="1" stroke-miterlimit="4"/></g></g><g transform="matrix(1, 0, 0, 1, 446, 224)"><g clip-path="url(#e09a89468f)"><g fill="#a6a6a6" fill-opacity="1"><g transform="translate(1.631655, 245.208377)"><g><path d="M 108.640625 0 L 53.96875 -71.8125 L 53.96875 0 L 14.359375 0 L 14.359375 -162.609375 L 53.96875 -162.609375 L 53.96875 -91.265625 L 108.171875 -162.609375 L 154.734375 -162.609375 L 91.734375 -82.921875 L 157.046875 0 Z M 108.640625 0 "/></g></g></g><g fill="#a6a6a6" fill-opacity="1"><g transform="translate(152.86885, 245.208377)"><g><path d="M 6.484375 -64.859375 C 6.484375 -78.140625 8.992188 -89.796875 14.015625 -99.828125 C 19.035156 -109.867188 25.867188 -117.59375 34.515625 -123 C 43.160156 -128.40625 52.8125 -131.109375 63.46875 -131.109375 C 72.582031 -131.109375 80.570312 -129.253906 87.4375 -125.546875 C 94.3125 -121.835938 99.601562 -116.972656 103.3125 -110.953125 L 103.3125 -129.25 L 142.921875 -129.25 L 142.921875 0 L 103.3125 0 L 103.3125 -18.296875 C 99.445312 -12.273438 94.078125 -7.410156 87.203125 -3.703125 C 80.335938 0.00390625 72.347656 1.859375 63.234375 1.859375 C 52.734375 1.859375 43.160156 -0.878906 34.515625 -6.359375 C 25.867188 -11.847656 19.035156 -19.648438 14.015625 -29.765625 C 8.992188 -39.878906 6.484375 -51.578125 6.484375 -64.859375 Z M 103.3125 -64.625 C 103.3125 -74.507812 100.566406 -82.304688 95.078125 -88.015625 C 89.597656 -93.734375 82.921875 -96.59375 75.046875 -96.59375 C 67.171875 -96.59375 60.492188 -93.773438 55.015625 -88.140625 C 49.535156 -82.503906 46.796875 -74.742188 46.796875 -64.859375 C 46.796875 -54.972656 49.535156 -47.132812 55.015625 -41.34375 C 60.492188 -35.550781 67.171875 -32.65625 75.046875 -32.65625 C 82.921875 -32.65625 89.597656 -35.507812 95.078125 -41.21875 C 100.566406 -46.9375 103.3125 -54.738281 103.3125 -64.625 Z M 103.3125 -64.625 "/></g></g></g><g fill="#a6a6a6" fill-opacity="1"><g transform="translate(299.937114, 245.208377)"><g><path d="M 93.125 -130.640625 C 108.25 -130.640625 120.328125 -125.738281 129.359375 -115.9375 C 138.398438 -106.132812 142.921875 -92.660156 142.921875 -75.515625 L 142.921875 0 L 103.546875 0 L 103.546875 -70.1875 C 103.546875 -78.832031 101.304688 -85.546875 96.828125 -90.328125 C 92.347656 -95.117188 86.320312 -97.515625 78.75 -97.515625 C 71.1875 -97.515625 65.164062 -95.117188 60.6875 -90.328125 C 56.207031 -85.546875 53.96875 -78.832031 53.96875 -70.1875 L 53.96875 0 L 14.359375 0 L 14.359375 -129.25 L 53.96875 -129.25 L 53.96875 -112.109375 C 57.988281 -117.828125 63.394531 -122.34375 70.1875 -125.65625 C 76.976562 -128.976562 84.625 -130.640625 93.125 -130.640625 Z M 93.125 -130.640625 "/></g></g></g><g fill="#a6a6a6" fill-opacity="1"><g transform="translate(445.847321, 245.208377)"><g><path d="M 53.96875 -110.953125 C 57.675781 -116.972656 63.003906 -121.835938 69.953125 -125.546875 C 76.898438 -129.253906 84.851562 -131.109375 93.8125 -131.109375 C 104.46875 -131.109375 114.117188 -128.40625 122.765625 -123 C 131.410156 -117.59375 138.242188 -109.867188 143.265625 -99.828125 C 148.285156 -89.796875 150.796875 -78.140625 150.796875 -64.859375 C 150.796875 -51.578125 148.285156 -39.878906 143.265625 -29.765625 C 138.242188 -19.648438 131.410156 -11.847656 122.765625 -6.359375 C 114.117188 -0.878906 104.46875 1.859375 93.8125 1.859375 C 84.695312 1.859375 76.742188 0.046875 69.953125 -3.578125 C 63.160156 -7.210938 57.832031 -12.039062 53.96875 -18.0625 L 53.96875 0 L 14.359375 0 L 14.359375 -171.40625 L 53.96875 -171.40625 Z M 110.5 -64.859375 C 110.5 -74.742188 107.753906 -82.503906 102.265625 -88.140625 C 96.785156 -93.773438 90.03125 -96.59375 82 -96.59375 C 74.125 -96.59375 67.441406 -93.734375 61.953125 -88.015625 C 56.472656 -82.304688 53.734375 -74.507812 53.734375 -64.625 C 53.734375 -54.738281 56.472656 -46.9375 61.953125 -41.21875 C 67.441406 -35.507812 74.125 -32.65625 82 -32.65625 C 89.875 -32.65625 96.59375 -35.550781 102.15625 -41.34375 C 107.71875 -47.132812 110.5 -54.972656 110.5 -64.859375 Z M 110.5 -64.859375 "/></g></g></g><g fill="#a6a6a6" fill-opacity="1"><g transform="translate(592.915584, 245.208377)"><g><path d="M 6.484375 -64.859375 C 6.484375 -78.140625 8.992188 -89.796875 14.015625 -99.828125 C 19.035156 -109.867188 25.867188 -117.59375 34.515625 -123 C 43.160156 -128.40625 52.8125 -131.109375 63.46875 -131.109375 C 72.582031 -131.109375 80.570312 -129.253906 87.4375 -125.546875 C 94.3125 -121.835938 99.601562 -116.972656 103.3125 -110.953125 L 103.3125 -129.25 L 142.921875 -129.25 L 142.921875 0 L 103.3125 0 L 103.3125 -18.296875 C 99.445312 -12.273438 94.078125 -7.410156 87.203125 -3.703125 C 80.335938 0.00390625 72.347656 1.859375 63.234375 1.859375 C 52.734375 1.859375 43.160156 -0.878906 34.515625 -6.359375 C 25.867188 -11.847656 19.035156 -19.648438 14.015625 -29.765625 C 8.992188 -39.878906 6.484375 -51.578125 6.484375 -64.859375 Z M 103.3125 -64.625 C 103.3125 -74.507812 100.566406 -82.304688 95.078125 -88.015625 C 89.597656 -93.734375 82.921875 -96.59375 75.046875 -96.59375 C 67.171875 -96.59375 60.492188 -93.773438 55.015625 -88.140625 C 49.535156 -82.503906 46.796875 -74.742188 46.796875 -64.859375 C 46.796875 -54.972656 49.535156 -47.132812 55.015625 -41.34375 C 60.492188 -35.550781 67.171875 -32.65625 75.046875 -32.65625 C 82.921875 -32.65625 89.597656 -35.507812 95.078125 -41.21875 C 100.566406 -46.9375 103.3125 -54.738281 103.3125 -64.625 Z M 103.3125 -64.625 "/></g></g></g><g fill="#a6a6a6" fill-opacity="1"><g transform="translate(739.983847, 245.208377)"><g><path d="M 93.125 -130.640625 C 108.25 -130.640625 120.328125 -125.738281 129.359375 -115.9375 C 138.398438 -106.132812 142.921875 -92.660156 142.921875 -75.515625 L 142.921875 0 L 103.546875 0 L 103.546875 -70.1875 C 103.546875 -78.832031 101.304688 -85.546875 96.828125 -90.328125 C 92.347656 -95.117188 86.320312 -97.515625 78.75 -97.515625 C 71.1875 -97.515625 65.164062 -95.117188 60.6875 -90.328125 C 56.207031 -85.546875 53.96875 -78.832031 53.96875 -70.1875 L 53.96875 0 L 14.359375 0 L 14.359375 -129.25 L 53.96875 -129.25 L 53.96875 -112.109375 C 57.988281 -117.828125 63.394531 -122.34375 70.1875 -125.65625 C 76.976562 -128.976562 84.625 -130.640625 93.125 -130.640625 Z M 93.125 -130.640625 "/></g></g></g><g fill="#a6a6a6" fill-opacity="1"><g transform="translate(885.910733, 245.208377)"><g/></g></g></g></g><g clip-path="url(#9b80c2d204)"><g clip-path="url(#33bfad8ec7)"><path stroke-linecap="butt" transform="matrix(0.75, 0, 0, 0.75, 195.87196, 301.646342)" fill="none" stroke-linejoin="miter" d="M 134.259269 39.966337 L 134.259269 151.752801 C 134.259269 162.35176 130.045727 172.518427 122.550935 180.013219 C 115.056143 187.508011 104.889476 191.716345 94.290517 191.716345 L 39.967598 191.716345 C 29.368639 191.716345 19.201972 187.508011 11.707179 180.013219 C 4.212387 172.518427 -0.00115442 162.35176 -0.00115442 151.752801 L -0.00115442 39.966337 C -0.00115442 29.367378 4.212387 19.200711 11.707179 11.705919 C 19.201972 4.211127 29.368639 -0.0024149 39.967598 -0.0024149 L 94.290517 -0.0024149 C 104.889476 -0.0024149 115.056143 4.211127 122.550935 11.705919 C 130.045727 19.200711 134.259269 29.367378 134.259269 39.966337 Z M 134.259269 39.966337 " stroke="#ffbd59" stroke-width="82" stroke-opacity="1" stroke-miterlimit="4"/></g></g><g clip-path="url(#122909482e)"><g clip-path="url(#534e99a0b7)"><path stroke-linecap="butt" transform="matrix(0.75, 0, 0, 0.75, 81.039619, 301.646342)" fill="none" stroke-linejoin="miter" d="M 134.254482 39.96634 L 134.254482 255.315323 C 134.254482 265.914282 130.04094 276.08095 122.546147 283.575743 C 115.051355 291.070535 104.889895 295.278869 94.290936 295.278869 L 39.962804 295.278869 C 29.363845 295.278869 19.202385 291.070535 11.707593 283.575743 C 4.2128 276.08095 -0.000741927 265.914282 -0.000741927 255.315323 L -0.000741927 39.96634 C -0.000741927 29.36738 4.2128 19.200712 11.707593 11.70592 C 19.202385 4.211127 29.363845 -0.0024149 39.962804 -0.0024149 L 94.290936 -0.0024149 C 104.889895 -0.0024149 115.051355 4.211127 122.546147 11.70592 C 130.04094 19.200712 134.254482 29.36738 134.254482 39.96634 Z M 134.254482 39.96634 " stroke="#eb4336" stroke-width="92" stroke-opacity="1" stroke-miterlimit="4"/></g></g></svg>