<svg xmlns="http://www.w3.org/2000/svg" xmlns:xlink="http://www.w3.org/1999/xlink" width="2912" zoomAndPan="magnify" viewBox="0 0 2184 1619.99993" height="2160" preserveAspectRatio="xMidYMid meet" version="1.0"><defs><g/><clipPath id="a53ceaff22"><rect x="0" width="419" y="0" height="282"/></clipPath><clipPath id="1382b0aa4a"><path d="M 234 587.535156 L 506.179688 587.535156 L 506.179688 828.285156 L 234 828.285156 Z M 234 587.535156 " clip-rule="nonzero"/></clipPath><clipPath id="cc1e2df211"><path d="M 371 623.046875 L 481 623.046875 L 481 744.546875 L 371 744.546875 Z M 371 623.046875 " clip-rule="nonzero"/></clipPath><clipPath id="9a90840abb"><path d="M 266.5625 617.207031 L 351.605469 617.207031 L 351.605469 652.007812 L 266.5625 652.007812 Z M 266.5625 617.207031 " clip-rule="nonzero"/></clipPath><clipPath id="18083317d5"><path d="M 270.449219 617.339844 L 347.726562 617.339844 C 348.722656 617.339844 349.675781 617.738281 350.378906 618.441406 C 351.082031 619.144531 351.476562 620.097656 351.476562 621.089844 L 351.476562 648.257812 C 351.476562 649.25 351.082031 650.207031 350.378906 650.910156 C 349.675781 651.613281 348.722656 652.007812 347.726562 652.007812 L 270.449219 652.007812 C 269.457031 652.007812 268.5 651.613281 267.796875 650.910156 C 267.09375 650.207031 266.699219 649.25 266.699219 648.257812 L 266.699219 621.089844 C 266.699219 620.097656 267.09375 619.144531 267.796875 618.441406 C 268.5 617.738281 269.457031 617.339844 270.449219 617.339844 Z M 270.449219 617.339844 " clip-rule="nonzero"/></clipPath><clipPath id="7e10fa1892"><path d="M 0.640625 0.28125 L 85.601562 0.28125 L 85.601562 35.007812 L 0.640625 35.007812 Z M 0.640625 0.28125 " clip-rule="nonzero"/></clipPath><clipPath id="d7957cd80b"><path d="M 4.449219 0.339844 L 81.726562 0.339844 C 82.722656 0.339844 83.675781 0.738281 84.378906 1.441406 C 85.082031 2.144531 85.476562 3.097656 85.476562 4.089844 L 85.476562 31.257812 C 85.476562 32.25 85.082031 33.207031 84.378906 33.910156 C 83.675781 34.613281 82.722656 35.007812 81.726562 35.007812 L 4.449219 35.007812 C 3.457031 35.007812 2.5 34.613281 1.796875 33.910156 C 1.09375 33.207031 0.699219 32.25 0.699219 31.257812 L 0.699219 4.089844 C 0.699219 3.097656 1.09375 2.144531 1.796875 1.441406 C 2.5 0.738281 3.457031 0.339844 4.449219 0.339844 Z M 4.449219 0.339844 " clip-rule="nonzero"/></clipPath><clipPath id="84cc131b86"><rect x="0" width="86" y="0" height="36"/></clipPath><clipPath id="9dcb3c5d3e"><path d="M 266.699219 617.339844 L 351.449219 617.339844 L 351.449219 651.839844 L 266.699219 651.839844 Z M 266.699219 617.339844 " clip-rule="nonzero"/></clipPath><clipPath id="c6944f1e0c"><path d="M 270.449219 617.339844 L 347.722656 617.339844 C 348.71875 617.339844 349.671875 617.738281 350.375 618.441406 C 351.078125 619.144531 351.472656 620.097656 351.472656 621.089844 L 351.472656 648.253906 C 351.472656 649.25 351.078125 650.203125 350.375 650.90625 C 349.671875 651.609375 348.71875 652.003906 347.722656 652.003906 L 270.449219 652.003906 C 269.453125 652.003906 268.5 651.609375 267.796875 650.90625 C 267.09375 650.203125 266.699219 649.25 266.699219 648.253906 L 266.699219 621.089844 C 266.699219 620.097656 267.09375 619.144531 267.796875 618.441406 C 268.5 617.738281 269.453125 617.339844 270.449219 617.339844 Z M 270.449219 617.339844 " clip-rule="nonzero"/></clipPath><clipPath id="4fd5e0ed38"><path d="M 266.5625 666.222656 L 351.605469 666.222656 L 351.605469 701.023438 L 266.5625 701.023438 Z M 266.5625 666.222656 " clip-rule="nonzero"/></clipPath><clipPath id="3f62c1ad51"><path d="M 270.449219 666.359375 L 347.726562 666.359375 C 348.722656 666.359375 349.675781 666.753906 350.378906 667.457031 C 351.082031 668.160156 351.476562 669.113281 351.476562 670.109375 L 351.476562 697.273438 C 351.476562 698.269531 351.082031 699.222656 350.378906 699.925781 C 349.675781 700.628906 348.722656 701.023438 347.726562 701.023438 L 270.449219 701.023438 C 269.457031 701.023438 268.5 700.628906 267.796875 699.925781 C 267.09375 699.222656 266.699219 698.269531 266.699219 697.273438 L 266.699219 670.109375 C 266.699219 669.113281 267.09375 668.160156 267.796875 667.457031 C 268.5 666.753906 269.457031 666.359375 270.449219 666.359375 Z M 270.449219 666.359375 " clip-rule="nonzero"/></clipPath><clipPath id="108e755c9f"><path d="M 0.640625 0.238281 L 85.601562 0.238281 L 85.601562 35.023438 L 0.640625 35.023438 Z M 0.640625 0.238281 " clip-rule="nonzero"/></clipPath><clipPath id="431fb94dce"><path d="M 4.449219 0.359375 L 81.726562 0.359375 C 82.722656 0.359375 83.675781 0.753906 84.378906 1.457031 C 85.082031 2.160156 85.476562 3.113281 85.476562 4.109375 L 85.476562 31.273438 C 85.476562 32.269531 85.082031 33.222656 84.378906 33.925781 C 83.675781 34.628906 82.722656 35.023438 81.726562 35.023438 L 4.449219 35.023438 C 3.457031 35.023438 2.5 34.628906 1.796875 33.925781 C 1.09375 33.222656 0.699219 32.269531 0.699219 31.273438 L 0.699219 4.109375 C 0.699219 3.113281 1.09375 2.160156 1.796875 1.457031 C 2.5 0.753906 3.457031 0.359375 4.449219 0.359375 Z M 4.449219 0.359375 " clip-rule="nonzero"/></clipPath><clipPath id="03eb74aadc"><rect x="0" width="86" y="0" height="36"/></clipPath><clipPath id="8ad0f8bd1a"><path d="M 266.699219 666.359375 L 351.449219 666.359375 L 351.449219 700.859375 L 266.699219 700.859375 Z M 266.699219 666.359375 " clip-rule="nonzero"/></clipPath><clipPath id="8fba8f41f9"><path d="M 270.449219 666.359375 L 347.722656 666.359375 C 348.71875 666.359375 349.671875 666.753906 350.375 667.457031 C 351.078125 668.160156 351.472656 669.113281 351.472656 670.109375 L 351.472656 697.273438 C 351.472656 698.265625 351.078125 699.21875 350.375 699.921875 C 349.671875 700.625 348.71875 701.023438 347.722656 701.023438 L 270.449219 701.023438 C 269.453125 701.023438 268.5 700.625 267.796875 699.921875 C 267.09375 699.21875 266.699219 698.265625 266.699219 697.273438 L 266.699219 670.109375 C 266.699219 669.113281 267.09375 668.160156 267.796875 667.457031 C 268.5 666.753906 269.453125 666.359375 270.449219 666.359375 Z M 270.449219 666.359375 " clip-rule="nonzero"/></clipPath><clipPath id="021616e520"><path d="M 266.5625 715.238281 L 351.605469 715.238281 L 351.605469 750.039062 L 266.5625 750.039062 Z M 266.5625 715.238281 " clip-rule="nonzero"/></clipPath><clipPath id="4543318378"><path d="M 270.449219 715.375 L 347.726562 715.375 C 348.722656 715.375 349.675781 715.769531 350.378906 716.472656 C 351.082031 717.175781 351.476562 718.128906 351.476562 719.125 L 351.476562 746.289062 C 351.476562 747.285156 351.082031 748.238281 350.378906 748.941406 C 349.675781 749.644531 348.722656 750.039062 347.726562 750.039062 L 270.449219 750.039062 C 269.457031 750.039062 268.5 749.644531 267.796875 748.941406 C 267.09375 748.238281 266.699219 747.285156 266.699219 746.289062 L 266.699219 719.125 C 266.699219 718.128906 267.09375 717.175781 267.796875 716.472656 C 268.5 715.769531 269.457031 715.375 270.449219 715.375 Z M 270.449219 715.375 " clip-rule="nonzero"/></clipPath><clipPath id="bf1bd0a200"><path d="M 0.640625 0.238281 L 85.601562 0.238281 L 85.601562 35.039062 L 0.640625 35.039062 Z M 0.640625 0.238281 " clip-rule="nonzero"/></clipPath><clipPath id="287bc00162"><path d="M 4.449219 0.375 L 81.726562 0.375 C 82.722656 0.375 83.675781 0.769531 84.378906 1.472656 C 85.082031 2.175781 85.476562 3.128906 85.476562 4.125 L 85.476562 31.289062 C 85.476562 32.285156 85.082031 33.238281 84.378906 33.941406 C 83.675781 34.644531 82.722656 35.039062 81.726562 35.039062 L 4.449219 35.039062 C 3.457031 35.039062 2.5 34.644531 1.796875 33.941406 C 1.09375 33.238281 0.699219 32.285156 0.699219 31.289062 L 0.699219 4.125 C 0.699219 3.128906 1.09375 2.175781 1.796875 1.472656 C 2.5 0.769531 3.457031 0.375 4.449219 0.375 Z M 4.449219 0.375 " clip-rule="nonzero"/></clipPath><clipPath id="8c3a227b3c"><rect x="0" width="86" y="0" height="36"/></clipPath><clipPath id="cd86226435"><path d="M 266.699219 715.375 L 351.449219 715.375 L 351.449219 749.875 L 266.699219 749.875 Z M 266.699219 715.375 " clip-rule="nonzero"/></clipPath><clipPath id="fe9fdccab6"><path d="M 270.449219 715.375 L 347.722656 715.375 C 348.71875 715.375 349.671875 715.769531 350.375 716.472656 C 351.078125 717.175781 351.472656 718.128906 351.472656 719.125 L 351.472656 746.289062 C 351.472656 747.28125 351.078125 748.238281 350.375 748.941406 C 349.671875 749.644531 348.71875 750.039062 347.722656 750.039062 L 270.449219 750.039062 C 269.453125 750.039062 268.5 749.644531 267.796875 748.941406 C 267.09375 748.238281 266.699219 747.28125 266.699219 746.289062 L 266.699219 719.125 C 266.699219 718.128906 267.09375 717.175781 267.796875 716.472656 C 268.5 715.769531 269.453125 715.375 270.449219 715.375 Z M 270.449219 715.375 " clip-rule="nonzero"/></clipPath></defs><g fill="#ffffff" fill-opacity="1"><g transform="translate(563.493215, 822.033726)"><g><path d="M 16.21875 0 L 16.21875 -132.5625 L 111.9375 -132.5625 L 111.9375 -118.140625 L 31.234375 -118.140625 L 31.234375 -72.09375 L 103.125 -72.09375 L 103.125 -57.46875 L 31.234375 -57.46875 L 31.234375 0 Z M 16.21875 0 "/></g></g></g><g fill="#ffffff" fill-opacity="1"><g transform="translate(675.236694, 822.033726)"><g><path d="M 13.015625 0 L 13.015625 -100.125 L 28.03125 -100.125 L 28.03125 -75.5 C 28.570312 -77.226562 29.609375 -79.523438 31.140625 -82.390625 C 32.671875 -85.265625 34.90625 -88.171875 37.84375 -91.109375 C 40.78125 -94.046875 44.484375 -96.550781 48.953125 -98.625 C 53.429688 -100.695312 58.738281 -101.734375 64.875 -101.734375 L 65.875 -101.734375 L 65.875 -86.703125 L 64.078125 -86.703125 C 56.597656 -86.703125 50.15625 -84.664062 44.75 -80.59375 C 39.34375 -76.53125 35.203125 -71.257812 32.328125 -64.78125 C 29.460938 -58.300781 28.03125 -51.394531 28.03125 -44.0625 L 28.03125 0 Z M 13.015625 0 "/></g></g></g><g fill="#ffffff" fill-opacity="1"><g transform="translate(741.722044, 822.033726)"><g><path d="M 57.46875 1.609375 C 47.320312 1.609375 38.441406 -0.691406 30.828125 -5.296875 C 23.222656 -9.910156 17.316406 -16.15625 13.109375 -24.03125 C 8.910156 -31.90625 6.8125 -40.582031 6.8125 -50.0625 C 6.8125 -59.675781 8.8125 -68.382812 12.8125 -76.1875 C 16.820312 -84 22.5625 -90.207031 30.03125 -94.8125 C 37.507812 -99.425781 46.320312 -101.734375 56.46875 -101.734375 C 66.75 -101.734375 75.59375 -99.425781 83 -94.8125 C 90.414062 -90.207031 96.125 -84 100.125 -76.1875 C 104.125 -68.382812 106.125 -59.675781 106.125 -50.0625 L 106.125 -44.0625 L 22.234375 -44.0625 C 23.023438 -38.1875 24.921875 -32.8125 27.921875 -27.9375 C 30.929688 -23.0625 34.972656 -19.1875 40.046875 -16.3125 C 45.117188 -13.445312 50.992188 -12.015625 57.671875 -12.015625 C 64.742188 -12.015625 70.679688 -13.582031 75.484375 -16.71875 C 80.296875 -19.851562 84.035156 -23.894531 86.703125 -28.84375 L 103.125 -28.84375 C 99.65625 -19.894531 94.148438 -12.582031 86.609375 -6.90625 C 79.066406 -1.226562 69.351562 1.609375 57.46875 1.609375 Z M 22.421875 -58.078125 L 90.515625 -58.078125 C 89.179688 -66.617188 85.578125 -73.757812 79.703125 -79.5 C 73.828125 -85.238281 66.082031 -88.109375 56.46875 -88.109375 C 46.851562 -88.109375 39.140625 -85.238281 33.328125 -79.5 C 27.523438 -73.757812 23.890625 -66.617188 22.421875 -58.078125 Z M 22.421875 -58.078125 "/></g></g></g><g fill="#ffffff" fill-opacity="1"><g transform="translate(853.265263, 822.033726)"><g><path d="M 57.46875 1.609375 C 47.320312 1.609375 38.441406 -0.691406 30.828125 -5.296875 C 23.222656 -9.910156 17.316406 -16.15625 13.109375 -24.03125 C 8.910156 -31.90625 6.8125 -40.582031 6.8125 -50.0625 C 6.8125 -59.675781 8.8125 -68.382812 12.8125 -76.1875 C 16.820312 -84 22.5625 -90.207031 30.03125 -94.8125 C 37.507812 -99.425781 46.320312 -101.734375 56.46875 -101.734375 C 66.75 -101.734375 75.59375 -99.425781 83 -94.8125 C 90.414062 -90.207031 96.125 -84 100.125 -76.1875 C 104.125 -68.382812 106.125 -59.675781 106.125 -50.0625 L 106.125 -44.0625 L 22.234375 -44.0625 C 23.023438 -38.1875 24.921875 -32.8125 27.921875 -27.9375 C 30.929688 -23.0625 34.972656 -19.1875 40.046875 -16.3125 C 45.117188 -13.445312 50.992188 -12.015625 57.671875 -12.015625 C 64.742188 -12.015625 70.679688 -13.582031 75.484375 -16.71875 C 80.296875 -19.851562 84.035156 -23.894531 86.703125 -28.84375 L 103.125 -28.84375 C 99.65625 -19.894531 94.148438 -12.582031 86.609375 -6.90625 C 79.066406 -1.226562 69.351562 1.609375 57.46875 1.609375 Z M 22.421875 -58.078125 L 90.515625 -58.078125 C 89.179688 -66.617188 85.578125 -73.757812 79.703125 -79.5 C 73.828125 -85.238281 66.082031 -88.109375 56.46875 -88.109375 C 46.851562 -88.109375 39.140625 -85.238281 33.328125 -79.5 C 27.523438 -73.757812 23.890625 -66.617188 22.421875 -58.078125 Z M 22.421875 -58.078125 "/></g></g></g><g fill="#ffffff" fill-opacity="1"><g transform="translate(964.808459, 822.033726)"><g><path d="M 13.015625 0 L 13.015625 -140.171875 L 28.03125 -140.171875 L 28.03125 0 Z M 13.015625 0 "/></g></g></g><g fill="#ffffff" fill-opacity="1"><g transform="translate(1005.861206, 822.033726)"><g><path d="M 55.265625 1.609375 C 45.523438 1.609375 37.015625 -0.691406 29.734375 -5.296875 C 22.460938 -9.910156 16.820312 -16.15625 12.8125 -24.03125 C 8.8125 -31.90625 6.8125 -40.582031 6.8125 -50.0625 C 6.8125 -59.675781 8.8125 -68.382812 12.8125 -76.1875 C 16.820312 -84 22.460938 -90.207031 29.734375 -94.8125 C 37.015625 -99.425781 45.523438 -101.734375 55.265625 -101.734375 C 63.546875 -101.734375 70.65625 -100.128906 76.59375 -96.921875 C 82.53125 -93.710938 87.367188 -89.375 91.109375 -83.90625 L 91.109375 -100.125 L 106.125 -100.125 L 106.125 0 L 91.109375 0 L 91.109375 -16.015625 C 87.367188 -10.679688 82.53125 -6.410156 76.59375 -3.203125 C 70.65625 0.00390625 63.546875 1.609375 55.265625 1.609375 Z M 57.265625 -12.015625 C 64.742188 -12.015625 71.050781 -13.75 76.1875 -17.21875 C 81.332031 -20.6875 85.238281 -25.320312 87.90625 -31.125 C 90.582031 -36.9375 91.921875 -43.25 91.921875 -50.0625 C 91.921875 -57 90.582031 -63.335938 87.90625 -69.078125 C 85.238281 -74.828125 81.332031 -79.4375 76.1875 -82.90625 C 71.050781 -86.375 64.742188 -88.109375 57.265625 -88.109375 C 49.921875 -88.109375 43.578125 -86.375 38.234375 -82.90625 C 32.898438 -79.4375 28.832031 -74.828125 26.03125 -69.078125 C 23.226562 -63.335938 21.828125 -57 21.828125 -50.0625 C 21.828125 -43.25 23.226562 -36.9375 26.03125 -31.125 C 28.832031 -25.320312 32.898438 -20.6875 38.234375 -17.21875 C 43.578125 -13.75 49.921875 -12.015625 57.265625 -12.015625 Z M 57.265625 -12.015625 "/></g></g></g><g fill="#ffffff" fill-opacity="1"><g transform="translate(1125.014241, 822.033726)"><g><path d="M 13.015625 0 L 13.015625 -100.125 L 28.03125 -100.125 L 28.03125 -84.5 C 31.632812 -89.3125 36.039062 -93.382812 41.25 -96.71875 C 46.457031 -100.0625 53.132812 -101.734375 61.28125 -101.734375 C 68.21875 -101.734375 74.722656 -100.097656 80.796875 -96.828125 C 86.867188 -93.554688 91.804688 -88.679688 95.609375 -82.203125 C 99.421875 -75.722656 101.328125 -67.742188 101.328125 -58.265625 L 101.328125 0 L 86.3125 0 L 86.3125 -57.875 C 86.3125 -66.945312 83.707031 -74.253906 78.5 -79.796875 C 73.289062 -85.335938 66.546875 -88.109375 58.265625 -88.109375 C 52.660156 -88.109375 47.585938 -86.835938 43.046875 -84.296875 C 38.515625 -81.765625 34.878906 -78.195312 32.140625 -73.59375 C 29.398438 -68.988281 28.03125 -63.679688 28.03125 -57.671875 L 28.03125 0 Z M 13.015625 0 "/></g></g></g><g fill="#ffffff" fill-opacity="1"><g transform="translate(1238.359767, 822.033726)"><g><path d="M 56.0625 1.609375 C 46.050781 1.609375 37.375 -0.691406 30.03125 -5.296875 C 22.695312 -9.910156 16.992188 -16.15625 12.921875 -24.03125 C 8.847656 -31.90625 6.8125 -40.582031 6.8125 -50.0625 C 6.8125 -59.675781 8.847656 -68.382812 12.921875 -76.1875 C 16.992188 -84 22.695312 -90.207031 30.03125 -94.8125 C 37.375 -99.425781 46.050781 -101.734375 56.0625 -101.734375 C 67.945312 -101.734375 78.0625 -98.660156 86.40625 -92.515625 C 94.75 -86.367188 100.390625 -78.425781 103.328125 -68.6875 L 87.109375 -68.6875 C 84.835938 -74.425781 81.195312 -79.097656 76.1875 -82.703125 C 71.1875 -86.304688 65.148438 -88.109375 58.078125 -88.109375 C 50.734375 -88.109375 44.320312 -86.375 38.84375 -82.90625 C 33.375 -79.4375 29.171875 -74.828125 26.234375 -69.078125 C 23.296875 -63.335938 21.828125 -57 21.828125 -50.0625 C 21.828125 -43.25 23.296875 -36.9375 26.234375 -31.125 C 29.171875 -25.320312 33.375 -20.6875 38.84375 -17.21875 C 44.320312 -13.75 50.734375 -12.015625 58.078125 -12.015625 C 65.148438 -12.015625 71.1875 -13.816406 76.1875 -17.421875 C 81.195312 -21.023438 84.835938 -25.695312 87.109375 -31.4375 L 103.328125 -31.4375 C 100.390625 -21.695312 94.75 -13.753906 86.40625 -7.609375 C 78.0625 -1.460938 67.945312 1.609375 56.0625 1.609375 Z M 56.0625 1.609375 "/></g></g></g><g fill="#ffffff" fill-opacity="1"><g transform="translate(1347.29973, 822.033726)"><g><path d="M 57.46875 1.609375 C 47.320312 1.609375 38.441406 -0.691406 30.828125 -5.296875 C 23.222656 -9.910156 17.316406 -16.15625 13.109375 -24.03125 C 8.910156 -31.90625 6.8125 -40.582031 6.8125 -50.0625 C 6.8125 -59.675781 8.8125 -68.382812 12.8125 -76.1875 C 16.820312 -84 22.5625 -90.207031 30.03125 -94.8125 C 37.507812 -99.425781 46.320312 -101.734375 56.46875 -101.734375 C 66.75 -101.734375 75.59375 -99.425781 83 -94.8125 C 90.414062 -90.207031 96.125 -84 100.125 -76.1875 C 104.125 -68.382812 106.125 -59.675781 106.125 -50.0625 L 106.125 -44.0625 L 22.234375 -44.0625 C 23.023438 -38.1875 24.921875 -32.8125 27.921875 -27.9375 C 30.929688 -23.0625 34.972656 -19.1875 40.046875 -16.3125 C 45.117188 -13.445312 50.992188 -12.015625 57.671875 -12.015625 C 64.742188 -12.015625 70.679688 -13.582031 75.484375 -16.71875 C 80.296875 -19.851562 84.035156 -23.894531 86.703125 -28.84375 L 103.125 -28.84375 C 99.65625 -19.894531 94.148438 -12.582031 86.609375 -6.90625 C 79.066406 -1.226562 69.351562 1.609375 57.46875 1.609375 Z M 22.421875 -58.078125 L 90.515625 -58.078125 C 89.179688 -66.617188 85.578125 -73.757812 79.703125 -79.5 C 73.828125 -85.238281 66.082031 -88.109375 56.46875 -88.109375 C 46.851562 -88.109375 39.140625 -85.238281 33.328125 -79.5 C 27.523438 -73.757812 23.890625 -66.617188 22.421875 -58.078125 Z M 22.421875 -58.078125 "/></g></g></g><g fill="#ffffff" fill-opacity="1"><g transform="translate(1458.842902, 822.033726)"><g><path d="M 13.015625 0 L 13.015625 -100.125 L 28.03125 -100.125 L 28.03125 -75.5 C 28.570312 -77.226562 29.609375 -79.523438 31.140625 -82.390625 C 32.671875 -85.265625 34.90625 -88.171875 37.84375 -91.109375 C 40.78125 -94.046875 44.484375 -96.550781 48.953125 -98.625 C 53.429688 -100.695312 58.738281 -101.734375 64.875 -101.734375 L 65.875 -101.734375 L 65.875 -86.703125 L 64.078125 -86.703125 C 56.597656 -86.703125 50.15625 -84.664062 44.75 -80.59375 C 39.34375 -76.53125 35.203125 -71.257812 32.328125 -64.78125 C 29.460938 -58.300781 28.03125 -51.394531 28.03125 -44.0625 L 28.03125 0 Z M 13.015625 0 "/></g></g></g><g transform="matrix(1, 0, 0, 1, 1532, 619)"><g clip-path="url(#a53ceaff22)"><g fill="#5ce1e6" fill-opacity="1"><g transform="translate(0.722651, 211.571805)"><g><path d="M 134.171875 -140.578125 L 134.171875 0 L 99.921875 0 L 99.921875 -57.875 L 46.65625 -57.875 L 46.65625 0 L 12.421875 0 L 12.421875 -140.578125 L 46.65625 -140.578125 L 46.65625 -85.5 L 99.921875 -85.5 L 99.921875 -140.578125 Z M 134.171875 -140.578125 "/></g></g></g><g fill="#5ce1e6" fill-opacity="1"><g transform="translate(147.106803, 211.571805)"><g><path d="M 122.75 -111.734375 L 122.75 0 L 88.515625 0 L 88.515625 -15.21875 C 85.035156 -10.28125 80.328125 -6.304688 74.390625 -3.296875 C 68.453125 -0.296875 61.878906 1.203125 54.671875 1.203125 C 46.128906 1.203125 38.585938 -0.695312 32.046875 -4.5 C 25.503906 -8.3125 20.429688 -13.820312 16.828125 -21.03125 C 13.222656 -28.238281 11.421875 -36.710938 11.421875 -46.453125 L 11.421875 -111.734375 L 45.453125 -111.734375 L 45.453125 -51.0625 C 45.453125 -43.582031 47.390625 -37.773438 51.265625 -33.640625 C 55.140625 -29.503906 60.347656 -27.4375 66.890625 -27.4375 C 73.554688 -27.4375 78.828125 -29.503906 82.703125 -33.640625 C 86.578125 -37.773438 88.515625 -43.582031 88.515625 -51.0625 L 88.515625 -111.734375 Z M 122.75 -111.734375 "/></g></g></g><g fill="#5ce1e6" fill-opacity="1"><g transform="translate(282.076606, 211.571805)"><g><path d="M 46.65625 -95.921875 C 49.863281 -101.128906 54.46875 -105.332031 60.46875 -108.53125 C 66.476562 -111.738281 73.351562 -113.34375 81.09375 -113.34375 C 90.3125 -113.34375 98.65625 -111.003906 106.125 -106.328125 C 113.601562 -101.660156 119.507812 -94.988281 123.84375 -86.3125 C 128.1875 -77.632812 130.359375 -67.550781 130.359375 -56.0625 C 130.359375 -44.582031 128.1875 -34.46875 123.84375 -25.71875 C 119.507812 -16.976562 113.601562 -10.238281 106.125 -5.5 C 98.65625 -0.757812 90.3125 1.609375 81.09375 1.609375 C 73.21875 1.609375 66.34375 0.0390625 60.46875 -3.09375 C 54.601562 -6.238281 50 -10.414062 46.65625 -15.625 L 46.65625 0 L 12.421875 0 L 12.421875 -148.1875 L 46.65625 -148.1875 Z M 95.515625 -56.0625 C 95.515625 -64.613281 93.144531 -71.320312 88.40625 -76.1875 C 83.664062 -81.0625 77.828125 -83.5 70.890625 -83.5 C 64.078125 -83.5 58.300781 -81.03125 53.5625 -76.09375 C 48.820312 -71.15625 46.453125 -64.414062 46.453125 -55.875 C 46.453125 -47.320312 48.820312 -40.578125 53.5625 -35.640625 C 58.300781 -30.703125 64.078125 -28.234375 70.890625 -28.234375 C 77.691406 -28.234375 83.492188 -30.734375 88.296875 -35.734375 C 93.109375 -40.742188 95.515625 -47.519531 95.515625 -56.0625 Z M 95.515625 -56.0625 "/></g></g></g></g></g><g clip-path="url(#1382b0aa4a)"><path fill="#5ce1e6" d="M 506.027344 761.832031 L 506.027344 608.429688 C 506.027344 607.742188 505.992188 607.0625 505.925781 606.378906 C 505.859375 605.699219 505.757812 605.023438 505.625 604.351562 C 505.492188 603.679688 505.328125 603.019531 505.128906 602.363281 C 504.929688 601.707031 504.699219 601.066406 504.4375 600.433594 C 504.175781 599.800781 503.882812 599.183594 503.558594 598.578125 C 503.238281 597.976562 502.886719 597.390625 502.507812 596.820312 C 502.125 596.253906 501.71875 595.703125 501.285156 595.175781 C 500.851562 594.644531 500.390625 594.140625 499.910156 593.65625 C 499.425781 593.171875 498.917969 592.714844 498.390625 592.277344 C 497.859375 591.84375 497.3125 591.4375 496.742188 591.058594 C 496.171875 590.675781 495.585938 590.328125 494.984375 590.003906 C 494.378906 589.679688 493.761719 589.390625 493.132812 589.128906 C 492.5 588.867188 491.855469 588.636719 491.199219 588.4375 C 490.546875 588.238281 489.882812 588.070312 489.210938 587.9375 C 488.539062 587.804688 487.863281 587.703125 487.183594 587.636719 C 486.503906 587.570312 485.820312 587.535156 485.136719 587.535156 L 254.890625 587.535156 C 254.207031 587.535156 253.523438 587.570312 252.84375 587.636719 C 252.160156 587.703125 251.484375 587.804688 250.8125 587.9375 C 250.144531 588.070312 249.480469 588.238281 248.824219 588.4375 C 248.171875 588.636719 247.527344 588.867188 246.894531 589.128906 C 246.261719 589.390625 245.644531 589.679688 245.042969 590.003906 C 244.4375 590.328125 243.851562 590.675781 243.285156 591.058594 C 242.714844 591.4375 242.164062 591.84375 241.636719 592.277344 C 241.109375 592.714844 240.601562 593.171875 240.117188 593.65625 C 239.632812 594.140625 239.175781 594.644531 238.742188 595.175781 C 238.308594 595.703125 237.898438 596.253906 237.519531 596.820312 C 237.140625 597.390625 236.789062 597.976562 236.464844 598.578125 C 236.144531 599.183594 235.851562 599.800781 235.589844 600.433594 C 235.328125 601.066406 235.097656 601.707031 234.898438 602.363281 C 234.699219 603.019531 234.535156 603.679688 234.398438 604.351562 C 234.265625 605.023438 234.167969 605.699219 234.097656 606.378906 C 234.03125 607.0625 234 607.742188 234 608.429688 L 234 761.832031 C 234 762.515625 234.03125 763.199219 234.097656 763.878906 C 234.167969 764.5625 234.265625 765.238281 234.398438 765.90625 C 234.535156 766.578125 234.699219 767.242188 234.898438 767.898438 C 235.097656 768.550781 235.328125 769.195312 235.589844 769.828125 C 235.851562 770.457031 236.144531 771.078125 236.464844 771.679688 C 236.789062 772.285156 237.140625 772.871094 237.519531 773.4375 C 237.898438 774.007812 238.308594 774.554688 238.742188 775.085938 C 239.175781 775.613281 239.632812 776.121094 240.117188 776.605469 C 240.601562 777.089844 241.109375 777.546875 241.636719 777.980469 C 242.164062 778.414062 242.714844 778.820312 243.285156 779.203125 C 243.851562 779.582031 244.4375 779.933594 245.042969 780.257812 C 245.644531 780.578125 246.261719 780.871094 246.894531 781.132812 C 247.527344 781.394531 248.171875 781.625 248.824219 781.824219 C 249.480469 782.023438 250.144531 782.1875 250.8125 782.320312 C 251.484375 782.457031 252.160156 782.554688 252.84375 782.621094 C 253.523438 782.691406 254.207031 782.722656 254.890625 782.722656 L 341.511719 782.722656 L 341.511719 794.8125 C 341.511719 795.363281 341.484375 795.914062 341.429688 796.464844 C 341.375 797.015625 341.292969 797.558594 341.1875 798.101562 C 341.078125 798.644531 340.945312 799.175781 340.785156 799.707031 C 340.625 800.234375 340.4375 800.753906 340.226562 801.265625 C 340.015625 801.773438 339.78125 802.273438 339.519531 802.757812 C 339.257812 803.246094 338.976562 803.71875 338.667969 804.179688 C 338.363281 804.636719 338.035156 805.082031 337.683594 805.507812 C 337.332031 805.933594 336.960938 806.34375 336.574219 806.734375 C 336.183594 807.125 335.773438 807.492188 335.347656 807.84375 C 334.917969 808.195312 334.476562 808.523438 334.019531 808.828125 C 333.558594 809.136719 333.085938 809.417969 332.597656 809.679688 C 332.113281 809.941406 331.613281 810.175781 331.101562 810.386719 C 330.59375 810.597656 330.074219 810.785156 329.546875 810.945312 C 329.015625 811.105469 328.480469 811.238281 327.941406 811.347656 C 327.398438 811.453125 326.851562 811.535156 326.304688 811.589844 C 325.753906 811.644531 325.203125 811.671875 324.652344 811.671875 L 305.785156 811.671875 C 305.25 811.671875 304.714844 811.695312 304.179688 811.75 C 303.644531 811.800781 303.113281 811.878906 302.589844 811.984375 C 302.0625 812.089844 301.542969 812.21875 301.027344 812.375 C 300.515625 812.53125 300.007812 812.710938 299.511719 812.917969 C 299.019531 813.125 298.53125 813.351562 298.058594 813.605469 C 297.585938 813.859375 297.125 814.132812 296.679688 814.433594 C 296.234375 814.730469 295.800781 815.050781 295.386719 815.390625 C 294.972656 815.730469 294.574219 816.089844 294.195312 816.472656 C 293.816406 816.851562 293.457031 817.25 293.117188 817.664062 C 292.773438 818.078125 292.457031 818.507812 292.15625 818.957031 C 291.859375 819.402344 291.582031 819.863281 291.332031 820.335938 C 291.078125 820.808594 290.847656 821.292969 290.644531 821.789062 C 290.4375 822.285156 290.257812 822.789062 290.101562 823.304688 C 289.945312 823.816406 289.816406 824.335938 289.710938 824.863281 C 289.605469 825.390625 289.527344 825.921875 289.472656 826.457031 C 289.421875 826.988281 289.394531 827.523438 289.394531 828.0625 L 450.632812 828.0625 C 450.632812 827.523438 450.605469 826.988281 450.554688 826.457031 C 450.503906 825.921875 450.421875 825.390625 450.320312 824.863281 C 450.214844 824.335938 450.082031 823.816406 449.929688 823.304688 C 449.773438 822.789062 449.589844 822.285156 449.386719 821.789062 C 449.179688 821.292969 448.949219 820.808594 448.699219 820.335938 C 448.445312 819.863281 448.167969 819.402344 447.871094 818.957031 C 447.574219 818.507812 447.253906 818.078125 446.914062 817.664062 C 446.574219 817.25 446.210938 816.851562 445.832031 816.472656 C 445.453125 816.089844 445.054688 815.730469 444.640625 815.390625 C 444.226562 815.050781 443.796875 814.730469 443.347656 814.433594 C 442.902344 814.132812 442.441406 813.859375 441.96875 813.605469 C 441.496094 813.351562 441.011719 813.125 440.515625 812.917969 C 440.019531 812.710938 439.515625 812.53125 439 812.375 C 438.488281 812.21875 437.964844 812.089844 437.441406 811.984375 C 436.914062 811.878906 436.382812 811.800781 435.847656 811.75 C 435.316406 811.695312 434.777344 811.671875 434.242188 811.671875 L 415.375 811.671875 C 414.824219 811.671875 414.273438 811.644531 413.722656 811.589844 C 413.171875 811.535156 412.628906 811.453125 412.085938 811.347656 C 411.542969 811.238281 411.007812 811.105469 410.480469 810.945312 C 409.953125 810.785156 409.433594 810.597656 408.921875 810.386719 C 408.414062 810.175781 407.914062 809.941406 407.425781 809.679688 C 406.941406 809.417969 406.46875 809.136719 406.007812 808.828125 C 405.550781 808.523438 405.105469 808.195312 404.679688 807.84375 C 404.253906 807.492188 403.84375 807.125 403.453125 806.734375 C 403.0625 806.34375 402.691406 805.933594 402.34375 805.507812 C 401.992188 805.082031 401.664062 804.636719 401.355469 804.179688 C 401.050781 803.71875 400.765625 803.246094 400.507812 802.757812 C 400.246094 802.273438 400.011719 801.773438 399.800781 801.265625 C 399.585938 800.753906 399.402344 800.234375 399.242188 799.707031 C 399.082031 799.175781 398.949219 798.644531 398.839844 798.101562 C 398.730469 797.558594 398.652344 797.015625 398.597656 796.464844 C 398.542969 795.914062 398.515625 795.363281 398.515625 794.8125 L 398.515625 782.722656 L 485.136719 782.722656 C 485.820312 782.722656 486.503906 782.691406 487.183594 782.621094 C 487.863281 782.554688 488.539062 782.457031 489.210938 782.320312 C 489.882812 782.1875 490.546875 782.023438 491.199219 781.824219 C 491.855469 781.625 492.5 781.394531 493.128906 781.132812 C 493.761719 780.871094 494.378906 780.578125 494.984375 780.257812 C 495.585938 779.933594 496.171875 779.582031 496.742188 779.203125 C 497.3125 778.824219 497.859375 778.414062 498.390625 777.980469 C 498.917969 777.546875 499.425781 777.089844 499.910156 776.605469 C 500.390625 776.121094 500.851562 775.613281 501.285156 775.085938 C 501.71875 774.554688 502.125 774.007812 502.507812 773.4375 C 502.886719 772.871094 503.238281 772.285156 503.558594 771.679688 C 503.882812 771.078125 504.175781 770.460938 504.4375 769.828125 C 504.699219 769.195312 504.929688 768.550781 505.128906 767.898438 C 505.328125 767.242188 505.492188 766.578125 505.625 765.90625 C 505.757812 765.238281 505.859375 764.5625 505.925781 763.878906 C 505.992188 763.199219 506.027344 762.515625 506.027344 761.832031 Z M 246.75 754.121094 L 246.75 609.335938 C 246.75 608.761719 246.804688 608.191406 246.917969 607.625 C 247.03125 607.058594 247.199219 606.511719 247.417969 605.976562 C 247.640625 605.445312 247.910156 604.9375 248.230469 604.460938 C 248.550781 603.980469 248.914062 603.535156 249.324219 603.128906 C 249.730469 602.722656 250.171875 602.355469 250.652344 602.035156 C 251.132812 601.714844 251.636719 601.445312 252.171875 601.226562 C 252.703125 601.003906 253.253906 600.839844 253.820312 600.726562 C 254.382812 600.613281 254.957031 600.558594 255.53125 600.558594 L 484.496094 600.558594 C 485.070312 600.558594 485.640625 600.613281 486.207031 600.726562 C 486.773438 600.839844 487.320312 601.003906 487.855469 601.226562 C 488.386719 601.445312 488.894531 601.714844 489.371094 602.035156 C 489.851562 602.355469 490.296875 602.722656 490.703125 603.128906 C 491.113281 603.535156 491.476562 603.980469 491.796875 604.460938 C 492.117188 604.9375 492.386719 605.445312 492.605469 605.976562 C 492.828125 606.511719 492.996094 607.058594 493.105469 607.625 C 493.21875 608.191406 493.277344 608.761719 493.277344 609.335938 L 493.277344 754.121094 C 493.277344 754.699219 493.21875 755.269531 493.105469 755.835938 C 492.996094 756.402344 492.828125 756.949219 492.605469 757.480469 C 492.386719 758.015625 492.117188 758.519531 491.796875 759 C 491.476562 759.480469 491.113281 759.921875 490.703125 760.332031 C 490.296875 760.738281 489.851562 761.101562 489.371094 761.421875 C 488.894531 761.742188 488.386719 762.015625 487.855469 762.234375 C 487.320312 762.453125 486.773438 762.621094 486.207031 762.734375 C 485.640625 762.847656 485.070312 762.902344 484.496094 762.902344 L 255.53125 762.902344 C 254.957031 762.902344 254.382812 762.847656 253.820312 762.734375 C 253.253906 762.621094 252.703125 762.453125 252.171875 762.234375 C 251.636719 762.015625 251.132812 761.742188 250.652344 761.421875 C 250.171875 761.101562 249.730469 760.738281 249.324219 760.332031 C 248.914062 759.921875 248.550781 759.480469 248.230469 759 C 247.910156 758.519531 247.640625 758.015625 247.417969 757.480469 C 247.199219 756.949219 247.03125 756.402344 246.917969 755.835938 C 246.804688 755.269531 246.75 754.699219 246.75 754.121094 Z M 246.75 754.121094 " fill-opacity="1" fill-rule="nonzero"/></g><g clip-path="url(#cc1e2df211)"><path fill="#ffffff" d="M 476.269531 680.648438 C 474.917969 678.34375 473.292969 676.246094 471.394531 674.363281 C 469.5 672.476562 467.390625 670.867188 465.074219 669.53125 C 461.539062 667.476562 457.882812 666.171875 453.753906 665.605469 L 453.753906 650.820312 C 454.753906 650.40625 455.671875 649.855469 456.507812 649.164062 C 457.34375 648.472656 458.058594 647.675781 458.65625 646.769531 C 459.25 645.863281 459.699219 644.890625 460.003906 643.851562 C 460.308594 642.8125 460.453125 641.75 460.4375 640.664062 C 460.441406 639.933594 460.375 639.207031 460.234375 638.488281 C 460.09375 637.773438 459.886719 637.074219 459.609375 636.398438 C 459.332031 635.71875 458.988281 635.078125 458.585938 634.464844 C 458.179688 633.855469 457.71875 633.292969 457.203125 632.773438 C 456.6875 632.253906 456.125 631.792969 455.519531 631.382812 C 454.910156 630.976562 454.269531 630.632812 453.59375 630.351562 C 452.917969 630.070312 452.21875 629.859375 451.503906 629.714844 C 450.785156 629.570312 450.058594 629.5 449.328125 629.5 C 448.59375 629.5 447.867188 629.570312 447.148438 629.714844 C 446.425781 629.859375 445.726562 630.070312 445.050781 630.347656 C 444.371094 630.628906 443.726562 630.972656 443.117188 631.378906 C 442.503906 631.789062 441.941406 632.25 441.421875 632.769531 C 440.902344 633.285156 440.4375 633.851562 440.027344 634.460938 C 439.617188 635.070312 439.273438 635.710938 438.988281 636.390625 C 438.707031 637.066406 438.492188 637.765625 438.347656 638.484375 C 438.203125 639.203125 438.128906 639.929688 438.125 640.664062 C 438.125 645.203125 440.535156 649.070312 444.671875 650.820312 L 444.671875 665.523438 C 441.222656 666.023438 437.9375 667.050781 434.820312 668.613281 L 395.242188 638.648438 C 395.523438 637.601562 395.761719 636.519531 395.761719 635.378906 C 395.761719 628.546875 390.226562 623.011719 383.394531 623.011719 C 376.5625 623.011719 371.035156 628.546875 371.035156 635.378906 C 371.035156 642.210938 376.570312 647.746094 383.402344 647.746094 C 385.734375 647.746094 387.894531 647.0625 389.753906 645.941406 L 392.347656 647.90625 L 427.851562 673.503906 C 425.96875 675.226562 424.222656 677.1875 422.824219 679.390625 C 419.988281 683.878906 418.257812 688.816406 418.257812 694.203125 L 418.257812 695.3125 C 418.273438 698.996094 418.917969 702.5625 420.203125 706.015625 C 421.277344 708.941406 422.851562 711.609375 424.804688 714.015625 L 413.007812 725.835938 C 409.519531 724.542969 405.601562 725.402344 402.964844 728.039062 C 401.167969 729.828125 400.160156 732.261719 400.167969 734.796875 C 400.179688 737.335938 401.167969 739.75 402.972656 741.558594 C 404.78125 743.363281 407.195312 744.363281 409.734375 744.363281 C 412.269531 744.363281 414.703125 743.363281 416.492188 741.558594 C 418.277344 739.75 419.296875 737.335938 419.285156 734.796875 C 419.285156 733.820312 419.136719 732.863281 418.84375 731.929688 L 431.027344 719.746094 C 432.691406 720.902344 434.496094 721.875 436.441406 722.707031 C 440.480469 724.480469 444.703125 725.367188 449.113281 725.375 L 449.949219 725.375 C 455.058594 725.375 459.882812 724.171875 464.410156 721.71875 C 466.734375 720.46875 468.859375 718.941406 470.78125 717.128906 C 472.703125 715.320312 474.355469 713.292969 475.742188 711.042969 C 478.582031 706.507812 480.136719 701.480469 480.136719 695.953125 L 480.136719 695.675781 C 480.136719 690.242188 478.878906 685.234375 476.25 680.640625 Z M 461.390625 706.21875 C 458.085938 709.894531 454.28125 712.164062 449.984375 712.164062 L 449.171875 712.164062 C 446.71875 712.164062 444.308594 711.488281 441.96875 710.246094 C 439.355469 708.886719 437.25 706.972656 435.65625 704.496094 C 433.949219 702.089844 433.023438 699.460938 433.023438 696.675781 L 433.023438 695.84375 C 433.023438 693.101562 433.554688 690.5 434.875 688.046875 C 436.292969 685.269531 438.210938 683.277344 440.753906 681.621094 C 443.300781 679.964844 445.921875 679.167969 448.902344 679.167969 L 449.179688 679.167969 C 451.863281 679.167969 454.429688 679.695312 456.835938 680.925781 C 459.316406 682.230469 461.320312 684.054688 462.855469 686.398438 C 464.367188 688.746094 465.265625 691.304688 465.546875 694.082031 L 465.613281 695.8125 C 465.613281 699.582031 464.167969 703.070312 461.289062 706.238281 Z M 461.390625 706.21875 " fill-opacity="1" fill-rule="nonzero"/></g><g clip-path="url(#9a90840abb)"><g clip-path="url(#18083317d5)"><g transform="matrix(1, 0, 0, 1, 266, 617)"><g clip-path="url(#84cc131b86)"><g clip-path="url(#7e10fa1892)"><g clip-path="url(#d7957cd80b)"><path fill="#5ce1e6" d="M 0.699219 0.339844 L 85.46875 0.339844 L 85.46875 35.007812 L 0.699219 35.007812 Z M 0.699219 0.339844 " fill-opacity="1" fill-rule="nonzero"/></g></g></g></g></g></g><g clip-path="url(#9dcb3c5d3e)"><g clip-path="url(#c6944f1e0c)"><path stroke-linecap="butt" transform="matrix(0.75, 0, 0, 0.75, 266.699789, 617.341632)" fill="none" stroke-linejoin="miter" d="M 4.99924 -0.0023838 L 108.030505 -0.0023838 C 109.35863 -0.0023838 110.629464 0.528866 111.566964 1.466366 C 112.504464 2.403867 113.030506 3.6747 113.030506 4.997617 L 113.030506 41.216372 C 113.030506 42.544498 112.504464 43.815331 111.566964 44.752831 C 110.629464 45.690331 109.35863 46.216373 108.030505 46.216373 L 4.99924 46.216373 C 3.676323 46.216373 2.400281 45.690331 1.462781 44.752831 C 0.525281 43.815331 -0.000760798 42.544498 -0.000760798 41.216372 L -0.000760798 4.997617 C -0.000760798 3.6747 0.525281 2.403867 1.462781 1.466366 C 2.400281 0.528866 3.676323 -0.0023838 4.99924 -0.0023838 Z M 4.99924 -0.0023838 " stroke="#5ce1e6" stroke-width="8" stroke-opacity="1" stroke-miterlimit="4"/></g></g><g clip-path="url(#4fd5e0ed38)"><g clip-path="url(#3f62c1ad51)"><g transform="matrix(1, 0, 0, 1, 266, 666)"><g clip-path="url(#03eb74aadc)"><g clip-path="url(#108e755c9f)"><g clip-path="url(#431fb94dce)"><path fill="#ff914d" d="M 0.699219 0.359375 L 85.46875 0.359375 L 85.46875 35.023438 L 0.699219 35.023438 Z M 0.699219 0.359375 " fill-opacity="1" fill-rule="nonzero"/></g></g></g></g></g></g><g clip-path="url(#8ad0f8bd1a)"><g clip-path="url(#8fba8f41f9)"><path stroke-linecap="butt" transform="matrix(0.75, 0, 0, 0.75, 266.699789, 666.357883)" fill="none" stroke-linejoin="miter" d="M 4.99924 0.00198874 L 108.030505 0.00198874 C 109.35863 0.00198874 110.629464 0.52803 111.566964 1.465531 C 112.504464 2.403031 113.030506 3.673864 113.030506 5.001989 L 113.030506 41.220745 C 113.030506 42.543662 112.504464 43.814495 111.566964 44.751995 C 110.629464 45.689496 109.35863 46.220746 108.030505 46.220746 L 4.99924 46.220746 C 3.676323 46.220746 2.400281 45.689496 1.462781 44.751995 C 0.525281 43.814495 -0.000760798 42.543662 -0.000760798 41.220745 L -0.000760798 5.001989 C -0.000760798 3.673864 0.525281 2.403031 1.462781 1.465531 C 2.400281 0.52803 3.676323 0.00198874 4.99924 0.00198874 Z M 4.99924 0.00198874 " stroke="#ff914d" stroke-width="8" stroke-opacity="1" stroke-miterlimit="4"/></g></g><g clip-path="url(#021616e520)"><g clip-path="url(#4543318378)"><g transform="matrix(1, 0, 0, 1, 266, 715)"><g clip-path="url(#8c3a227b3c)"><g clip-path="url(#bf1bd0a200)"><g clip-path="url(#287bc00162)"><path fill="#7ed957" d="M 0.699219 0.375 L 85.46875 0.375 L 85.46875 35.039062 L 0.699219 35.039062 Z M 0.699219 0.375 " fill-opacity="1" fill-rule="nonzero"/></g></g></g></g></g></g><g clip-path="url(#cd86226435)"><g clip-path="url(#fe9fdccab6)"><path stroke-linecap="butt" transform="matrix(0.75, 0, 0, 0.75, 266.699789, 715.374111)" fill="none" stroke-linejoin="miter" d="M 4.99924 0.00118496 L 108.030505 0.00118496 C 109.35863 0.00118496 110.629464 0.527227 111.566964 1.464727 C 112.504464 2.402227 113.030506 3.673061 113.030506 5.001186 L 113.030506 41.219941 C 113.030506 42.542858 112.504464 43.8189 111.566964 44.7564 C 110.629464 45.6939 109.35863 46.219942 108.030505 46.219942 L 4.99924 46.219942 C 3.676323 46.219942 2.400281 45.6939 1.462781 44.7564 C 0.525281 43.8189 -0.000760798 42.542858 -0.000760798 41.219941 L -0.000760798 5.001186 C -0.000760798 3.673061 0.525281 2.402227 1.462781 1.464727 C 2.400281 0.527227 3.676323 0.00118496 4.99924 0.00118496 Z M 4.99924 0.00118496 " stroke="#7ed957" stroke-width="8" stroke-opacity="1" stroke-miterlimit="4"/></g></g></svg>